<svg width="375" height="812" viewBox="0 0 375 812" fill="none" xmlns="http://www.w3.org/2000/svg">
<g clip-path="url(#clip0_22_533)">
<g opacity="0.2" filter="url(#filter0_f_22_533)">
<ellipse cx="187.5" cy="350" rx="670.5" ry="350" fill="#35875D"/>
</g>
<path d="M-0.965097 455C0.53022 455 1.66219 455.63 2.43081 456.891C3.21341 458.138 3.60471 459.953 3.60471 462.336C3.60471 464.719 3.21341 466.541 2.43081 467.802C1.66219 469.063 0.53022 469.693 -0.965097 469.693C-2.44644 469.693 -3.57841 469.063 -4.36101 467.802C-5.1436 466.541 -5.5349 464.719 -5.5349 462.336C-5.5349 459.967 -5.1436 458.152 -4.36101 456.891C-3.57841 455.63 -2.44644 455 -0.965097 455ZM-4.04657 462.336C-4.04657 464.026 -3.89285 465.35 -3.5854 466.306L1.06826 457.099C0.579134 456.448 -0.0986519 456.122 -0.965097 456.122C-1.92937 456.122 -2.68402 456.635 -3.22904 457.66C-3.77406 458.672 -4.04657 460.23 -4.04657 462.336ZM-0.965097 468.55C0.0131474 468.55 0.774784 468.044 1.31981 467.033C1.86483 466.008 2.13734 464.442 2.13734 462.336C2.13734 460.549 1.96265 459.163 1.61328 458.18L-3.04037 467.469C-2.53728 468.19 -1.84552 468.55 -0.965097 468.55Z" fill="url(#paint0_linear_22_533)" fill-opacity="0.6"/>
<path d="M0.292646 492.135H3.37412V493.236H-4.61256V492.135H-1.04895V480.455L-4.44486 482.471L-5.03181 481.536L-0.839323 478.959H0.292646V492.135Z" fill="url(#paint1_linear_22_533)" fill-opacity="0.6"/>
<path d="M-0.965097 502.502C0.53022 502.502 1.66219 503.133 2.43081 504.393C3.21341 505.64 3.60471 507.455 3.60471 509.838C3.60471 512.221 3.21341 514.043 2.43081 515.304C1.66219 516.565 0.53022 517.195 -0.965097 517.195C-2.44644 517.195 -3.57841 516.565 -4.36101 515.304C-5.1436 514.043 -5.5349 512.221 -5.5349 509.838C-5.5349 507.469 -5.1436 505.654 -4.36101 504.393C-3.57841 503.133 -2.44644 502.502 -0.965097 502.502ZM-4.04657 509.838C-4.04657 511.529 -3.89285 512.852 -3.5854 513.808L1.06826 504.601C0.579134 503.95 -0.0986519 503.624 -0.965097 503.624C-1.92937 503.624 -2.68402 504.137 -3.22904 505.162C-3.77406 506.174 -4.04657 507.732 -4.04657 509.838ZM-0.965097 516.052C0.0131474 516.052 0.774784 515.546 1.31981 514.535C1.86483 513.51 2.13734 511.944 2.13734 509.838C2.13734 508.051 1.96265 506.665 1.61328 505.682L-3.04037 514.971C-2.53728 515.692 -1.84552 516.052 -0.965097 516.052Z" fill="url(#paint2_linear_22_533)" fill-opacity="0.6"/>
<path d="M0.292646 539.637H3.37412V540.738H-4.61256V539.637H-1.04895V527.957L-4.44486 529.973L-5.03181 529.038L-0.839323 526.461H0.292646V539.637Z" fill="url(#paint3_linear_22_533)" fill-opacity="0.6"/>
<path d="M0.292646 563.388H3.37412V564.489H-4.61256V563.388H-1.04895V551.708L-4.44486 553.724L-5.03181 552.789L-0.839323 550.212H0.292646V563.388Z" fill="url(#paint4_linear_22_533)" fill-opacity="0.6"/>
<path d="M-0.965097 573.755C0.53022 573.755 1.66219 574.386 2.43081 575.646C3.21341 576.893 3.60471 578.708 3.60471 581.091C3.60471 583.474 3.21341 585.296 2.43081 586.557C1.66219 587.818 0.53022 588.448 -0.965097 588.448C-2.44644 588.448 -3.57841 587.818 -4.36101 586.557C-5.1436 585.296 -5.5349 583.474 -5.5349 581.091C-5.5349 578.722 -5.1436 576.907 -4.36101 575.646C-3.57841 574.386 -2.44644 573.755 -0.965097 573.755ZM-4.04657 581.091C-4.04657 582.782 -3.89285 584.105 -3.5854 585.061L1.06826 575.854C0.579134 575.203 -0.0986519 574.878 -0.965097 574.878C-1.92937 574.878 -2.68402 575.39 -3.22904 576.415C-3.77406 577.427 -4.04657 578.985 -4.04657 581.091ZM-0.965097 587.305C0.0131474 587.305 0.774784 586.8 1.31981 585.788C1.86483 584.763 2.13734 583.197 2.13734 581.091C2.13734 579.304 1.96265 577.919 1.61328 576.935L-3.04037 586.225C-2.53728 586.945 -1.84552 587.305 -0.965097 587.305Z" fill="url(#paint5_linear_22_533)" fill-opacity="0.6"/>
<path d="M0.292646 610.89H3.37412V611.992H-4.61256V610.89H-1.04895V599.21L-4.44486 601.226L-5.03181 600.291L-0.839323 597.714H0.292646V610.89Z" fill="url(#paint6_linear_22_533)" fill-opacity="0.6"/>
<path d="M-0.965097 621.257C0.53022 621.257 1.66219 621.888 2.43081 623.149C3.21341 624.396 3.60471 626.211 3.60471 628.594C3.60471 630.977 3.21341 632.798 2.43081 634.059C1.66219 635.32 0.53022 635.95 -0.965097 635.95C-2.44644 635.95 -3.57841 635.32 -4.36101 634.059C-5.1436 632.798 -5.5349 630.977 -5.5349 628.594C-5.5349 626.224 -5.1436 624.409 -4.36101 623.149C-3.57841 621.888 -2.44644 621.257 -0.965097 621.257ZM-4.04657 628.594C-4.04657 630.284 -3.89285 631.607 -3.5854 632.563L1.06826 623.356C0.579134 622.705 -0.0986519 622.38 -0.965097 622.38C-1.92937 622.38 -2.68402 622.892 -3.22904 623.918C-3.77406 624.929 -4.04657 626.488 -4.04657 628.594ZM-0.965097 634.807C0.0131474 634.807 0.774784 634.302 1.31981 633.29C1.86483 632.265 2.13734 630.699 2.13734 628.594C2.13734 626.806 1.96265 625.421 1.61328 624.437L-3.04037 633.727C-2.53728 634.447 -1.84552 634.807 -0.965097 634.807Z" fill="url(#paint7_linear_22_533)" fill-opacity="0.6"/>
<path d="M-0.965097 645.008C0.53022 645.008 1.66219 645.639 2.43081 646.9C3.21341 648.147 3.60471 649.962 3.60471 652.345C3.60471 654.728 3.21341 656.549 2.43081 657.81C1.66219 659.071 0.53022 659.701 -0.965097 659.701C-2.44644 659.701 -3.57841 659.071 -4.36101 657.81C-5.1436 656.549 -5.5349 654.728 -5.5349 652.345C-5.5349 649.975 -5.1436 648.16 -4.36101 646.9C-3.57841 645.639 -2.44644 645.008 -0.965097 645.008ZM-4.04657 652.345C-4.04657 654.035 -3.89285 655.358 -3.5854 656.314L1.06826 647.107C0.579134 646.456 -0.0986519 646.131 -0.965097 646.131C-1.92937 646.131 -2.68402 646.643 -3.22904 647.669C-3.77406 648.68 -4.04657 650.239 -4.04657 652.345ZM-0.965097 658.558C0.0131474 658.558 0.774784 658.053 1.31981 657.041C1.86483 656.016 2.13734 654.451 2.13734 652.345C2.13734 650.557 1.96265 649.172 1.61328 648.188L-3.04037 657.478C-2.53728 658.198 -1.84552 658.558 -0.965097 658.558Z" fill="url(#paint8_linear_22_533)" fill-opacity="0.6"/>
<path d="M0.292646 682.143H3.37412V683.245H-4.61256V682.143H-1.04895V670.464L-4.44486 672.48L-5.03181 671.544L-0.839323 668.967H0.292646V682.143Z" fill="url(#paint9_linear_22_533)" fill-opacity="0.6"/>
<path d="M-0.965097 692.511C0.53022 692.511 1.66219 693.141 2.43081 694.402C3.21341 695.649 3.60471 697.464 3.60471 699.847C3.60471 702.23 3.21341 704.052 2.43081 705.312C1.66219 706.573 0.53022 707.204 -0.965097 707.204C-2.44644 707.204 -3.57841 706.573 -4.36101 705.312C-5.1436 704.052 -5.5349 702.23 -5.5349 699.847C-5.5349 697.478 -5.1436 695.663 -4.36101 694.402C-3.57841 693.141 -2.44644 692.511 -0.965097 692.511ZM-4.04657 699.847C-4.04657 701.537 -3.89285 702.86 -3.5854 703.816L1.06826 694.61C0.579134 693.958 -0.0986519 693.633 -0.965097 693.633C-1.92937 693.633 -2.68402 694.145 -3.22904 695.171C-3.77406 696.182 -4.04657 697.741 -4.04657 699.847ZM-0.965097 706.061C0.0131474 706.061 0.774784 705.555 1.31981 704.543C1.86483 703.518 2.13734 701.953 2.13734 699.847C2.13734 698.059 1.96265 696.674 1.61328 695.69L-3.04037 704.98C-2.53728 705.7 -1.84552 706.061 -0.965097 706.061Z" fill="url(#paint10_linear_22_533)" fill-opacity="0.6"/>
<path d="M0.292646 729.645H3.37412V730.747H-4.61256V729.645H-1.04895V717.966L-4.44486 719.982L-5.03181 719.046L-0.839323 716.469H0.292646V729.645Z" fill="url(#paint11_linear_22_533)" fill-opacity="0.6"/>
<path d="M0.292646 753.396H3.37412V754.498H-4.61256V753.396H-1.04895V741.717L-4.44486 743.733L-5.03181 742.798L-0.839323 740.221H0.292646V753.396Z" fill="url(#paint12_linear_22_533)" fill-opacity="0.6"/>
<path d="M37.9651 502.502C39.4604 502.502 40.5924 503.133 41.361 504.393C42.1436 505.64 42.5349 507.455 42.5349 509.838C42.5349 512.221 42.1436 514.043 41.361 515.304C40.5924 516.565 39.4604 517.195 37.9651 517.195C36.4838 517.195 35.3518 516.565 34.5692 515.304C33.7866 514.043 33.3953 512.221 33.3953 509.838C33.3953 507.469 33.7866 505.654 34.5692 504.393C35.3518 503.133 36.4838 502.502 37.9651 502.502ZM34.8836 509.838C34.8836 511.529 35.0374 512.852 35.3448 513.808L39.9985 504.601C39.5093 503.95 38.8315 503.624 37.9651 503.624C37.0008 503.624 36.2462 504.137 35.7012 505.162C35.1561 506.174 34.8836 507.732 34.8836 509.838ZM37.9651 516.052C38.9433 516.052 39.705 515.546 40.25 514.535C40.795 513.51 41.0675 511.944 41.0675 509.838C41.0675 508.051 40.8928 506.665 40.5435 505.682L35.8898 514.971C36.3929 515.692 37.0847 516.052 37.9651 516.052Z" fill="url(#paint13_linear_22_533)" fill-opacity="0.6"/>
<path d="M39.2228 539.637H42.3043V540.738H34.3176V539.637H37.8812V527.957L34.4853 529.973L33.8984 529.038L38.0909 526.461H39.2228V539.637Z" fill="url(#paint14_linear_22_533)" fill-opacity="0.6"/>
<path d="M37.9651 550.004C39.4604 550.004 40.5924 550.635 41.361 551.895C42.1436 553.142 42.5349 554.957 42.5349 557.34C42.5349 559.723 42.1436 561.545 41.361 562.806C40.5924 564.067 39.4604 564.697 37.9651 564.697C36.4838 564.697 35.3518 564.067 34.5692 562.806C33.7866 561.545 33.3953 559.723 33.3953 557.34C33.3953 554.971 33.7866 553.156 34.5692 551.895C35.3518 550.635 36.4838 550.004 37.9651 550.004ZM34.8836 557.34C34.8836 559.031 35.0374 560.354 35.3448 561.31L39.9985 552.103C39.5093 551.452 38.8315 551.126 37.9651 551.126C37.0008 551.126 36.2462 551.639 35.7012 552.664C35.1561 553.676 34.8836 555.234 34.8836 557.34ZM37.9651 563.554C38.9433 563.554 39.705 563.049 40.25 562.037C40.795 561.012 41.0675 559.446 41.0675 557.34C41.0675 555.553 40.8928 554.168 40.5435 553.184L35.8898 562.474C36.3929 563.194 37.0847 563.554 37.9651 563.554Z" fill="url(#paint15_linear_22_533)" fill-opacity="0.6"/>
<path d="M37.9651 573.755C39.4604 573.755 40.5924 574.386 41.361 575.646C42.1436 576.893 42.5349 578.708 42.5349 581.091C42.5349 583.474 42.1436 585.296 41.361 586.557C40.5924 587.818 39.4604 588.448 37.9651 588.448C36.4838 588.448 35.3518 587.818 34.5692 586.557C33.7866 585.296 33.3953 583.474 33.3953 581.091C33.3953 578.722 33.7866 576.907 34.5692 575.646C35.3518 574.386 36.4838 573.755 37.9651 573.755ZM34.8836 581.091C34.8836 582.782 35.0374 584.105 35.3448 585.061L39.9985 575.854C39.5093 575.203 38.8315 574.878 37.9651 574.878C37.0008 574.878 36.2462 575.39 35.7012 576.415C35.1561 577.427 34.8836 578.985 34.8836 581.091ZM37.9651 587.305C38.9433 587.305 39.705 586.8 40.25 585.788C40.795 584.763 41.0675 583.197 41.0675 581.091C41.0675 579.304 40.8928 577.919 40.5435 576.935L35.8898 586.225C36.3929 586.945 37.0847 587.305 37.9651 587.305Z" fill="url(#paint16_linear_22_533)" fill-opacity="0.6"/>
<path d="M39.2228 610.89H42.3043V611.992H34.3176V610.89H37.8812V599.21L34.4853 601.226L33.8984 600.291L38.0909 597.714H39.2228V610.89Z" fill="url(#paint17_linear_22_533)" fill-opacity="0.6"/>
<path d="M37.9651 621.257C39.4604 621.257 40.5924 621.888 41.361 623.149C42.1436 624.396 42.5349 626.211 42.5349 628.594C42.5349 630.977 42.1436 632.798 41.361 634.059C40.5924 635.32 39.4604 635.95 37.9651 635.95C36.4838 635.95 35.3518 635.32 34.5692 634.059C33.7866 632.798 33.3953 630.977 33.3953 628.594C33.3953 626.224 33.7866 624.409 34.5692 623.149C35.3518 621.888 36.4838 621.257 37.9651 621.257ZM34.8836 628.594C34.8836 630.284 35.0374 631.607 35.3448 632.563L39.9985 623.356C39.5093 622.705 38.8315 622.38 37.9651 622.38C37.0008 622.38 36.2462 622.892 35.7012 623.918C35.1561 624.929 34.8836 626.488 34.8836 628.594ZM37.9651 634.807C38.9433 634.807 39.705 634.302 40.25 633.29C40.795 632.265 41.0675 630.699 41.0675 628.594C41.0675 626.806 40.8928 625.421 40.5435 624.437L35.8898 633.727C36.3929 634.447 37.0847 634.807 37.9651 634.807Z" fill="url(#paint18_linear_22_533)" fill-opacity="0.6"/>
<path d="M39.2228 658.392H42.3043V659.494H34.3176V658.392H37.8812V646.713L34.4853 648.728L33.8984 647.793L38.0909 645.216H39.2228V658.392Z" fill="url(#paint19_linear_22_533)" fill-opacity="0.6"/>
<path d="M37.9651 668.76C39.4604 668.76 40.5924 669.39 41.361 670.651C42.1436 671.898 42.5349 673.713 42.5349 676.096C42.5349 678.479 42.1436 680.301 41.361 681.561C40.5924 682.822 39.4604 683.453 37.9651 683.453C36.4838 683.453 35.3518 682.822 34.5692 681.561C33.7866 680.301 33.3953 678.479 33.3953 676.096C33.3953 673.726 33.7866 671.911 34.5692 670.651C35.3518 669.39 36.4838 668.76 37.9651 668.76ZM34.8836 676.096C34.8836 677.786 35.0374 679.109 35.3448 680.065L39.9985 670.859C39.5093 670.207 38.8315 669.882 37.9651 669.882C37.0008 669.882 36.2462 670.394 35.7012 671.42C35.1561 672.431 34.8836 673.99 34.8836 676.096ZM37.9651 682.31C38.9433 682.31 39.705 681.804 40.25 680.792C40.795 679.767 41.0675 678.202 41.0675 676.096C41.0675 674.308 40.8928 672.923 40.5435 671.939L35.8898 681.229C36.3929 681.949 37.0847 682.31 37.9651 682.31Z" fill="url(#paint20_linear_22_533)" fill-opacity="0.6"/>
<path d="M37.9651 692.511C39.4604 692.511 40.5924 693.141 41.361 694.402C42.1436 695.649 42.5349 697.464 42.5349 699.847C42.5349 702.23 42.1436 704.052 41.361 705.312C40.5924 706.573 39.4604 707.204 37.9651 707.204C36.4838 707.204 35.3518 706.573 34.5692 705.312C33.7866 704.052 33.3953 702.23 33.3953 699.847C33.3953 697.478 33.7866 695.663 34.5692 694.402C35.3518 693.141 36.4838 692.511 37.9651 692.511ZM34.8836 699.847C34.8836 701.537 35.0374 702.86 35.3448 703.816L39.9985 694.61C39.5093 693.958 38.8315 693.633 37.9651 693.633C37.0008 693.633 36.2462 694.145 35.7012 695.171C35.1561 696.182 34.8836 697.741 34.8836 699.847ZM37.9651 706.061C38.9433 706.061 39.705 705.555 40.25 704.543C40.795 703.518 41.0675 701.953 41.0675 699.847C41.0675 698.059 40.8928 696.674 40.5435 695.69L35.8898 704.98C36.3929 705.7 37.0847 706.061 37.9651 706.061Z" fill="url(#paint21_linear_22_533)" fill-opacity="0.6"/>
<path d="M39.2228 729.645H42.3043V730.747H34.3176V729.645H37.8812V717.966L34.4853 719.982L33.8984 719.046L38.0909 716.469H39.2228V729.645Z" fill="url(#paint22_linear_22_533)" fill-opacity="0.6"/>
<path d="M37.9651 740.013C39.4604 740.013 40.5924 740.643 41.361 741.904C42.1436 743.151 42.5349 744.966 42.5349 747.349C42.5349 749.732 42.1436 751.554 41.361 752.815C40.5924 754.075 39.4604 754.706 37.9651 754.706C36.4838 754.706 35.3518 754.075 34.5692 752.815C33.7866 751.554 33.3953 749.732 33.3953 747.349C33.3953 744.98 33.7866 743.165 34.5692 741.904C35.3518 740.643 36.4838 740.013 37.9651 740.013ZM34.8836 747.349C34.8836 749.039 35.0374 750.362 35.3448 751.318L39.9985 742.112C39.5093 741.461 38.8315 741.135 37.9651 741.135C37.0008 741.135 36.2462 741.648 35.7012 742.673C35.1561 743.684 34.8836 745.243 34.8836 747.349ZM37.9651 753.563C38.9433 753.563 39.705 753.057 40.25 752.046C40.795 751.02 41.0675 749.455 41.0675 747.349C41.0675 745.562 40.8928 744.176 40.5435 743.192L35.8898 752.482C36.3929 753.202 37.0847 753.563 37.9651 753.563Z" fill="url(#paint23_linear_22_533)" fill-opacity="0.6"/>
<path d="M39.2228 777.147H42.3043V778.249H34.3176V777.147H37.8812V765.468L34.4853 767.484L33.8984 766.549L38.0909 763.972H39.2228V777.147Z" fill="url(#paint24_linear_22_533)" fill-opacity="0.6"/>
<path d="M39.2228 800.899H42.3043V802H34.3176V800.899H37.8812V789.219L34.4853 791.235L33.8984 790.3L38.0909 787.723H39.2228V800.899Z" fill="url(#paint25_linear_22_533)" fill-opacity="0.6"/>
<path d="M-20.4302 526.253C-18.9349 526.253 -17.8029 526.884 -17.0343 528.144C-16.2517 529.391 -15.8604 531.206 -15.8604 533.589C-15.8604 535.972 -16.2517 537.794 -17.0343 539.055C-17.8029 540.316 -18.9349 540.946 -20.4302 540.946C-21.9115 540.946 -23.0435 540.316 -23.8261 539.055C-24.6087 537.794 -25 535.972 -25 533.589C-25 531.22 -24.6087 529.405 -23.8261 528.144C-23.0435 526.884 -21.9115 526.253 -20.4302 526.253ZM-23.5117 533.589C-23.5117 535.28 -23.3579 536.603 -23.0505 537.559L-18.3968 528.352C-18.886 527.701 -19.5637 527.375 -20.4302 527.375C-21.3945 527.375 -22.1491 527.888 -22.6941 528.913C-23.2392 529.925 -23.5117 531.483 -23.5117 533.589ZM-20.4302 539.803C-19.4519 539.803 -18.6903 539.297 -18.1453 538.286C-17.6003 537.261 -17.3278 535.695 -17.3278 533.589C-17.3278 531.802 -17.5024 530.417 -17.8518 529.433L-22.5055 538.722C-22.0024 539.443 -21.3106 539.803 -20.4302 539.803Z" fill="url(#paint26_linear_22_533)" fill-opacity="0.6"/>
<path d="M-20.4302 550.004C-18.9349 550.004 -17.8029 550.635 -17.0343 551.895C-16.2517 553.142 -15.8604 554.957 -15.8604 557.34C-15.8604 559.723 -16.2517 561.545 -17.0343 562.806C-17.8029 564.067 -18.9349 564.697 -20.4302 564.697C-21.9115 564.697 -23.0435 564.067 -23.8261 562.806C-24.6087 561.545 -25 559.723 -25 557.34C-25 554.971 -24.6087 553.156 -23.8261 551.895C-23.0435 550.635 -21.9115 550.004 -20.4302 550.004ZM-23.5117 557.34C-23.5117 559.031 -23.3579 560.354 -23.0505 561.31L-18.3968 552.103C-18.886 551.452 -19.5637 551.126 -20.4302 551.126C-21.3945 551.126 -22.1491 551.639 -22.6941 552.664C-23.2392 553.676 -23.5117 555.234 -23.5117 557.34ZM-20.4302 563.554C-19.4519 563.554 -18.6903 563.049 -18.1453 562.037C-17.6003 561.012 -17.3278 559.446 -17.3278 557.34C-17.3278 555.553 -17.5024 554.168 -17.8518 553.184L-22.5055 562.474C-22.0024 563.194 -21.3106 563.554 -20.4302 563.554Z" fill="url(#paint27_linear_22_533)" fill-opacity="0.6"/>
<path d="M-19.1724 587.139H-16.091V588.24H-24.0777V587.139H-20.514V575.459L-23.91 577.475L-24.4969 576.54L-20.3044 573.963H-19.1724V587.139Z" fill="url(#paint28_linear_22_533)" fill-opacity="0.6"/>
<path d="M-20.4302 597.506C-18.9349 597.506 -17.8029 598.137 -17.0343 599.398C-16.2517 600.644 -15.8604 602.459 -15.8604 604.842C-15.8604 607.225 -16.2517 609.047 -17.0343 610.308C-17.8029 611.569 -18.9349 612.199 -20.4302 612.199C-21.9115 612.199 -23.0435 611.569 -23.8261 610.308C-24.6087 609.047 -25 607.225 -25 604.842C-25 602.473 -24.6087 600.658 -23.8261 599.398C-23.0435 598.137 -21.9115 597.506 -20.4302 597.506ZM-23.5117 604.842C-23.5117 606.533 -23.3579 607.856 -23.0505 608.812L-18.3968 599.605C-18.886 598.954 -19.5637 598.629 -20.4302 598.629C-21.3945 598.629 -22.1491 599.141 -22.6941 600.166C-23.2392 601.178 -23.5117 602.737 -23.5117 604.842ZM-20.4302 611.056C-19.4519 611.056 -18.6903 610.551 -18.1453 609.539C-17.6003 608.514 -17.3278 606.948 -17.3278 604.842C-17.3278 603.055 -17.5024 601.67 -17.8518 600.686L-22.5055 609.976C-22.0024 610.696 -21.3106 611.056 -20.4302 611.056Z" fill="url(#paint29_linear_22_533)" fill-opacity="0.6"/>
<path d="M-19.1724 634.641H-16.091V635.743H-24.0777V634.641H-20.514V622.962L-23.91 624.977L-24.4969 624.042L-20.3044 621.465H-19.1724V634.641Z" fill="url(#paint30_linear_22_533)" fill-opacity="0.6"/>
<path d="M-19.1724 658.392H-16.091V659.494H-24.0777V658.392H-20.514V646.713L-23.91 648.728L-24.4969 647.793L-20.3044 645.216H-19.1724V658.392Z" fill="url(#paint31_linear_22_533)" fill-opacity="0.6"/>
<path d="M19.7577 492.135H22.8392V493.236H14.8525V492.135H18.4162V480.455L15.0202 482.471L14.4333 481.536L18.6258 478.959H19.7577V492.135Z" fill="url(#paint32_linear_22_533)" fill-opacity="0.6"/>
<path d="M18.5 502.502C19.9953 502.502 21.1273 503.133 21.8959 504.393C22.6785 505.64 23.0698 507.455 23.0698 509.838C23.0698 512.221 22.6785 514.043 21.8959 515.304C21.1273 516.565 19.9953 517.195 18.5 517.195C17.0187 517.195 15.8867 516.565 15.1041 515.304C14.3215 514.043 13.9302 512.221 13.9302 509.838C13.9302 507.469 14.3215 505.654 15.1041 504.393C15.8867 503.133 17.0187 502.502 18.5 502.502ZM15.4185 509.838C15.4185 511.529 15.5723 512.852 15.8797 513.808L20.5334 504.601C20.0442 503.95 19.3664 503.624 18.5 503.624C17.5357 503.624 16.7811 504.137 16.2361 505.162C15.691 506.174 15.4185 507.732 15.4185 509.838ZM18.5 516.052C19.4782 516.052 20.2399 515.546 20.7849 514.535C21.3299 513.51 21.6024 511.944 21.6024 509.838C21.6024 508.051 21.4277 506.665 21.0784 505.682L16.4247 514.971C16.9278 515.692 17.6196 516.052 18.5 516.052Z" fill="url(#paint33_linear_22_533)" fill-opacity="0.6"/>
<path d="M19.7577 539.637H22.8392V540.738H14.8525V539.637H18.4162V527.957L15.0202 529.973L14.4333 529.038L18.6258 526.461H19.7577V539.637Z" fill="url(#paint34_linear_22_533)" fill-opacity="0.6"/>
<path d="M19.7577 563.388H22.8392V564.489H14.8525V563.388H18.4162V551.708L15.0202 553.724L14.4333 552.789L18.6258 550.212H19.7577V563.388Z" fill="url(#paint35_linear_22_533)" fill-opacity="0.6"/>
<path d="M18.5 573.755C19.9953 573.755 21.1273 574.386 21.8959 575.646C22.6785 576.893 23.0698 578.708 23.0698 581.091C23.0698 583.474 22.6785 585.296 21.8959 586.557C21.1273 587.818 19.9953 588.448 18.5 588.448C17.0187 588.448 15.8867 587.818 15.1041 586.557C14.3215 585.296 13.9302 583.474 13.9302 581.091C13.9302 578.722 14.3215 576.907 15.1041 575.646C15.8867 574.386 17.0187 573.755 18.5 573.755ZM15.4185 581.091C15.4185 582.782 15.5723 584.105 15.8797 585.061L20.5334 575.854C20.0442 575.203 19.3664 574.878 18.5 574.878C17.5357 574.878 16.7811 575.39 16.2361 576.415C15.691 577.427 15.4185 578.985 15.4185 581.091ZM18.5 587.305C19.4782 587.305 20.2399 586.8 20.7849 585.788C21.3299 584.763 21.6024 583.197 21.6024 581.091C21.6024 579.304 21.4277 577.919 21.0784 576.935L16.4247 586.225C16.9278 586.945 17.6196 587.305 18.5 587.305Z" fill="url(#paint36_linear_22_533)" fill-opacity="0.6"/>
<path d="M19.7577 610.89H22.8392V611.992H14.8525V610.89H18.4162V599.21L15.0202 601.226L14.4333 600.291L18.6258 597.714H19.7577V610.89Z" fill="url(#paint37_linear_22_533)" fill-opacity="0.6"/>
<path d="M19.7577 634.641H22.8392V635.743H14.8525V634.641H18.4162V622.962L15.0202 624.977L14.4333 624.042L18.6258 621.465H19.7577V634.641Z" fill="url(#paint38_linear_22_533)" fill-opacity="0.6"/>
<path d="M18.5 645.008C19.9953 645.008 21.1273 645.639 21.8959 646.9C22.6785 648.147 23.0698 649.962 23.0698 652.345C23.0698 654.728 22.6785 656.549 21.8959 657.81C21.1273 659.071 19.9953 659.701 18.5 659.701C17.0187 659.701 15.8867 659.071 15.1041 657.81C14.3215 656.549 13.9302 654.728 13.9302 652.345C13.9302 649.975 14.3215 648.16 15.1041 646.9C15.8867 645.639 17.0187 645.008 18.5 645.008ZM15.4185 652.345C15.4185 654.035 15.5723 655.358 15.8797 656.314L20.5334 647.107C20.0442 646.456 19.3664 646.131 18.5 646.131C17.5357 646.131 16.7811 646.643 16.2361 647.669C15.691 648.68 15.4185 650.239 15.4185 652.345ZM18.5 658.558C19.4782 658.558 20.2399 658.053 20.7849 657.041C21.3299 656.016 21.6024 654.451 21.6024 652.345C21.6024 650.557 21.4277 649.172 21.0784 648.188L16.4247 657.478C16.9278 658.198 17.6196 658.558 18.5 658.558Z" fill="url(#paint39_linear_22_533)" fill-opacity="0.6"/>
<path d="M19.7577 682.143H22.8392V683.245H14.8525V682.143H18.4162V670.464L15.0202 672.48L14.4333 671.544L18.6258 668.967H19.7577V682.143Z" fill="url(#paint40_linear_22_533)" fill-opacity="0.6"/>
<path d="M18.5 692.511C19.9953 692.511 21.1273 693.141 21.8959 694.402C22.6785 695.649 23.0698 697.464 23.0698 699.847C23.0698 702.23 22.6785 704.052 21.8959 705.312C21.1273 706.573 19.9953 707.204 18.5 707.204C17.0187 707.204 15.8867 706.573 15.1041 705.312C14.3215 704.052 13.9302 702.23 13.9302 699.847C13.9302 697.478 14.3215 695.663 15.1041 694.402C15.8867 693.141 17.0187 692.511 18.5 692.511ZM15.4185 699.847C15.4185 701.537 15.5723 702.86 15.8797 703.816L20.5334 694.61C20.0442 693.958 19.3664 693.633 18.5 693.633C17.5357 693.633 16.7811 694.145 16.2361 695.171C15.691 696.182 15.4185 697.741 15.4185 699.847ZM18.5 706.061C19.4782 706.061 20.2399 705.555 20.7849 704.543C21.3299 703.518 21.6024 701.953 21.6024 699.847C21.6024 698.059 21.4277 696.674 21.0784 695.69L16.4247 704.98C16.9278 705.7 17.6196 706.061 18.5 706.061Z" fill="url(#paint41_linear_22_533)" fill-opacity="0.6"/>
<path d="M57.4302 478.751C58.9255 478.751 60.0575 479.381 60.8261 480.642C61.6087 481.889 62 483.704 62 486.087C62 488.47 61.6087 490.292 60.8261 491.553C60.0575 492.814 58.9255 493.444 57.4302 493.444C55.9489 493.444 54.8169 492.814 54.0343 491.553C53.2517 490.292 52.8604 488.47 52.8604 486.087C52.8604 483.718 53.2517 481.903 54.0343 480.642C54.8169 479.381 55.9489 478.751 57.4302 478.751ZM54.3487 486.087C54.3487 487.777 54.5024 489.101 54.8099 490.057L59.4636 480.85C58.9744 480.199 58.2966 479.873 57.4302 479.873C56.4659 479.873 55.7113 480.386 55.1663 481.411C54.6212 482.423 54.3487 483.981 54.3487 486.087ZM57.4302 492.301C58.4084 492.301 59.1701 491.795 59.7151 490.784C60.2601 489.759 60.5326 488.193 60.5326 486.087C60.5326 484.3 60.3579 482.914 60.0086 481.931L55.3549 491.22C55.858 491.941 56.5498 492.301 57.4302 492.301Z" fill="url(#paint42_linear_22_533)" fill-opacity="0.6"/>
<path d="M58.6879 515.886H61.7694V516.987H53.7827V515.886H57.3463V504.206L53.9504 506.222L53.3635 505.287L57.556 502.71H58.6879V515.886Z" fill="url(#paint43_linear_22_533)" fill-opacity="0.6"/>
<path d="M58.6879 539.637H61.7694V540.738H53.7827V539.637H57.3463V527.957L53.9504 529.973L53.3635 529.038L57.556 526.461H58.6879V539.637Z" fill="url(#paint44_linear_22_533)" fill-opacity="0.6"/>
<path d="M57.4302 550.004C58.9255 550.004 60.0575 550.635 60.8261 551.895C61.6087 553.142 62 554.957 62 557.34C62 559.723 61.6087 561.545 60.8261 562.806C60.0575 564.067 58.9255 564.697 57.4302 564.697C55.9489 564.697 54.8169 564.067 54.0343 562.806C53.2517 561.545 52.8604 559.723 52.8604 557.34C52.8604 554.971 53.2517 553.156 54.0343 551.895C54.8169 550.635 55.9489 550.004 57.4302 550.004ZM54.3487 557.34C54.3487 559.031 54.5024 560.354 54.8099 561.31L59.4636 552.103C58.9744 551.452 58.2966 551.126 57.4302 551.126C56.4659 551.126 55.7113 551.639 55.1663 552.664C54.6212 553.676 54.3487 555.234 54.3487 557.34ZM57.4302 563.554C58.4084 563.554 59.1701 563.049 59.7151 562.037C60.2601 561.012 60.5326 559.446 60.5326 557.34C60.5326 555.553 60.3579 554.168 60.0086 553.184L55.3549 562.474C55.858 563.194 56.5498 563.554 57.4302 563.554Z" fill="url(#paint45_linear_22_533)" fill-opacity="0.6"/>
<path d="M57.4302 573.755C58.9255 573.755 60.0575 574.386 60.8261 575.646C61.6087 576.893 62 578.708 62 581.091C62 583.474 61.6087 585.296 60.8261 586.557C60.0575 587.818 58.9255 588.448 57.4302 588.448C55.9489 588.448 54.8169 587.818 54.0343 586.557C53.2517 585.296 52.8604 583.474 52.8604 581.091C52.8604 578.722 53.2517 576.907 54.0343 575.646C54.8169 574.386 55.9489 573.755 57.4302 573.755ZM54.3487 581.091C54.3487 582.782 54.5024 584.105 54.8099 585.061L59.4636 575.854C58.9744 575.203 58.2966 574.878 57.4302 574.878C56.4659 574.878 55.7113 575.39 55.1663 576.415C54.6212 577.427 54.3487 578.985 54.3487 581.091ZM57.4302 587.305C58.4084 587.305 59.1701 586.8 59.7151 585.788C60.2601 584.763 60.5326 583.197 60.5326 581.091C60.5326 579.304 60.3579 577.919 60.0086 576.935L55.3549 586.225C55.858 586.945 56.5498 587.305 57.4302 587.305Z" fill="url(#paint46_linear_22_533)" fill-opacity="0.6"/>
<g opacity="0.6">
<path d="M328.93 122C330.356 122 331.436 122.605 332.17 123.815C332.916 125.011 333.29 126.753 333.29 129.04C333.29 131.327 332.916 133.075 332.17 134.285C331.436 135.495 330.356 136.1 328.93 136.1C327.517 136.1 326.437 135.495 325.69 134.285C324.943 133.075 324.57 131.327 324.57 129.04C324.57 126.767 324.943 125.025 325.69 123.815C326.437 122.605 327.517 122 328.93 122ZM325.99 129.04C325.99 130.662 326.137 131.932 326.43 132.849L330.87 124.014C330.403 123.389 329.756 123.077 328.93 123.077C328.01 123.077 327.29 123.569 326.77 124.553C326.25 125.523 325.99 127.019 325.99 129.04ZM328.93 135.003C329.863 135.003 330.59 134.518 331.11 133.547C331.63 132.564 331.89 131.061 331.89 129.04C331.89 127.325 331.723 125.995 331.39 125.051L326.95 133.966C327.43 134.658 328.09 135.003 328.93 135.003Z" fill="url(#paint47_linear_22_533)"/>
<path d="M330.13 157.637H333.07V158.694H325.45V157.637H328.85V146.428L325.61 148.363L325.05 147.465L329.05 144.992H330.13V157.637Z" fill="url(#paint48_linear_22_533)"/>
<path d="M328.93 167.586C330.356 167.586 331.436 168.191 332.17 169.4C332.916 170.597 333.29 172.339 333.29 174.626C333.29 176.913 332.916 178.661 332.17 179.871C331.436 181.081 330.356 181.686 328.93 181.686C327.517 181.686 326.437 181.081 325.69 179.871C324.943 178.661 324.57 176.913 324.57 174.626C324.57 172.352 324.943 170.61 325.69 169.4C326.437 168.191 327.517 167.586 328.93 167.586ZM325.99 174.626C325.99 176.248 326.137 177.518 326.43 178.435L330.87 169.6C330.403 168.975 329.756 168.663 328.93 168.663C328.01 168.663 327.29 169.155 326.77 170.138C326.25 171.109 325.99 172.605 325.99 174.626ZM328.93 180.589C329.863 180.589 330.59 180.104 331.11 179.133C331.63 178.149 331.89 176.647 331.89 174.626C331.89 172.911 331.723 171.581 331.39 170.637L326.95 179.552C327.43 180.243 328.09 180.589 328.93 180.589Z" fill="url(#paint49_linear_22_533)"/>
<path d="M330.13 203.222H333.07V204.279H325.45V203.222H328.85V192.014L325.61 193.948L325.05 193.051L329.05 190.578H330.13V203.222Z" fill="url(#paint50_linear_22_533)"/>
<path d="M330.13 226.015H333.07V227.072H325.45V226.015H328.85V214.807L325.61 216.741L325.05 215.844L329.05 213.371H330.13V226.015Z" fill="url(#paint51_linear_22_533)"/>
<path d="M328.93 235.964C330.356 235.964 331.436 236.569 332.17 237.779C332.916 238.976 333.29 240.717 333.29 243.004C333.29 245.291 332.916 247.039 332.17 248.249C331.436 249.459 330.356 250.064 328.93 250.064C327.517 250.064 326.437 249.459 325.69 248.249C324.943 247.039 324.57 245.291 324.57 243.004C324.57 240.731 324.943 238.989 325.69 237.779C326.437 236.569 327.517 235.964 328.93 235.964ZM325.99 243.004C325.99 244.626 326.137 245.896 326.43 246.813L330.87 237.978C330.403 237.353 329.756 237.041 328.93 237.041C328.01 237.041 327.29 237.533 326.77 238.517C326.25 239.487 325.99 240.983 325.99 243.004ZM328.93 248.967C329.863 248.967 330.59 248.482 331.11 247.511C331.63 246.528 331.89 245.025 331.89 243.004C331.89 241.289 331.723 239.959 331.39 239.015L326.95 247.93C327.43 248.622 328.09 248.967 328.93 248.967Z" fill="url(#paint52_linear_22_533)"/>
<path d="M330.13 271.601H333.07V272.658H325.45V271.601H328.85V260.392L325.61 262.327L325.05 261.429L329.05 258.956H330.13V271.601Z" fill="url(#paint53_linear_22_533)"/>
<path d="M328.93 281.55C330.356 281.55 331.436 282.155 332.17 283.365C332.916 284.561 333.29 286.303 333.29 288.59C333.29 290.877 332.916 292.625 332.17 293.835C331.436 295.045 330.356 295.65 328.93 295.65C327.517 295.65 326.437 295.045 325.69 293.835C324.943 292.625 324.57 290.877 324.57 288.59C324.57 286.316 324.943 284.574 325.69 283.365C326.437 282.155 327.517 281.55 328.93 281.55ZM325.99 288.59C325.99 290.212 326.137 291.482 326.43 292.399L330.87 283.564C330.403 282.939 329.756 282.627 328.93 282.627C328.01 282.627 327.29 283.119 326.77 284.102C326.25 285.073 325.99 286.569 325.99 288.59ZM328.93 294.553C329.863 294.553 330.59 294.068 331.11 293.097C331.63 292.113 331.89 290.611 331.89 288.59C331.89 286.875 331.723 285.545 331.39 284.601L326.95 293.516C327.43 294.207 328.09 294.553 328.93 294.553Z" fill="url(#paint54_linear_22_533)"/>
<path d="M328.93 304.342C330.356 304.342 331.436 304.947 332.17 306.157C332.916 307.354 333.29 309.096 333.29 311.383C333.29 313.669 332.916 315.418 332.17 316.628C331.436 317.838 330.356 318.443 328.93 318.443C327.517 318.443 326.437 317.838 325.69 316.628C324.943 315.418 324.57 313.669 324.57 311.383C324.57 309.109 324.943 307.367 325.69 306.157C326.437 304.947 327.517 304.342 328.93 304.342ZM325.99 311.383C325.99 313.005 326.137 314.274 326.43 315.192L330.87 306.357C330.403 305.732 329.756 305.419 328.93 305.419C328.01 305.419 327.29 305.911 326.77 306.895C326.25 307.866 325.99 309.362 325.99 311.383ZM328.93 317.346C329.863 317.346 330.59 316.86 331.11 315.89C331.63 314.906 331.89 313.404 331.89 311.383C331.89 309.667 331.723 308.338 331.39 307.394L326.95 316.309C327.43 317 328.09 317.346 328.93 317.346Z" fill="url(#paint55_linear_22_533)"/>
<path d="M330.13 339.979H333.07V341.036H325.45V339.979H328.85V328.771L325.61 330.705L325.05 329.808L329.05 327.335H330.13V339.979Z" fill="url(#paint56_linear_22_533)"/>
<path d="M328.93 349.928C330.356 349.928 331.436 350.533 332.17 351.743C332.916 352.94 333.29 354.681 333.29 356.968C333.29 359.255 332.916 361.003 332.17 362.213C331.436 363.423 330.356 364.028 328.93 364.028C327.517 364.028 326.437 363.423 325.69 362.213C324.943 361.003 324.57 359.255 324.57 356.968C324.57 354.695 324.943 352.953 325.69 351.743C326.437 350.533 327.517 349.928 328.93 349.928ZM325.99 356.968C325.99 358.59 326.137 359.86 326.43 360.777L330.87 351.942C330.403 351.317 329.756 351.005 328.93 351.005C328.01 351.005 327.29 351.497 326.77 352.481C326.25 353.451 325.99 354.947 325.99 356.968ZM328.93 362.931C329.863 362.931 330.59 362.446 331.11 361.475C331.63 360.492 331.89 358.989 331.89 356.968C331.89 355.253 331.723 353.923 331.39 352.979L326.95 361.894C327.43 362.586 328.09 362.931 328.93 362.931Z" fill="url(#paint57_linear_22_533)"/>
<path d="M330.13 385.565H333.07V386.622H325.45V385.565H328.85V374.356L325.61 376.291L325.05 375.393L329.05 372.92H330.13V385.565Z" fill="url(#paint58_linear_22_533)"/>
<path d="M330.13 408.357H333.07V409.414H325.45V408.357H328.85V397.149L325.61 399.084L325.05 398.186L329.05 395.713H330.13V408.357Z" fill="url(#paint59_linear_22_533)"/>
<path d="M366.07 167.586C367.497 167.586 368.577 168.191 369.31 169.4C370.057 170.597 370.43 172.339 370.43 174.626C370.43 176.913 370.057 178.661 369.31 179.871C368.577 181.081 367.497 181.686 366.07 181.686C364.657 181.686 363.577 181.081 362.83 179.871C362.084 178.661 361.71 176.913 361.71 174.626C361.71 172.352 362.084 170.61 362.83 169.4C363.577 168.191 364.657 167.586 366.07 167.586ZM363.13 174.626C363.13 176.248 363.277 177.518 363.57 178.435L368.01 169.6C367.543 168.975 366.897 168.663 366.07 168.663C365.15 168.663 364.43 169.155 363.91 170.138C363.39 171.109 363.13 172.605 363.13 174.626ZM366.07 180.589C367.003 180.589 367.73 180.104 368.25 179.133C368.77 178.149 369.03 176.647 369.03 174.626C369.03 172.911 368.863 171.581 368.53 170.637L364.09 179.552C364.57 180.243 365.23 180.589 366.07 180.589Z" fill="url(#paint60_linear_22_533)"/>
<path d="M367.27 203.222H370.21V204.279H362.59V203.222H365.99V192.014L362.75 193.948L362.19 193.051L366.19 190.578H367.27V203.222Z" fill="url(#paint61_linear_22_533)"/>
<path d="M366.07 213.171C367.497 213.171 368.577 213.776 369.31 214.986C370.057 216.183 370.43 217.924 370.43 220.211C370.43 222.498 370.057 224.247 369.31 225.457C368.577 226.666 367.497 227.271 366.07 227.271C364.657 227.271 363.577 226.666 362.83 225.457C362.084 224.247 361.71 222.498 361.71 220.211C361.71 217.938 362.084 216.196 362.83 214.986C363.577 213.776 364.657 213.171 366.07 213.171ZM363.13 220.211C363.13 221.833 363.277 223.103 363.57 224.021L368.01 215.186C367.543 214.561 366.897 214.248 366.07 214.248C365.15 214.248 364.43 214.74 363.91 215.724C363.39 216.695 363.13 218.19 363.13 220.211ZM366.07 226.174C367.003 226.174 367.73 225.689 368.25 224.719C368.77 223.735 369.03 222.232 369.03 220.211C369.03 218.496 368.863 217.167 368.53 216.223L364.09 225.137C364.57 225.829 365.23 226.174 366.07 226.174Z" fill="url(#paint62_linear_22_533)"/>
<path d="M366.07 235.964C367.497 235.964 368.577 236.569 369.31 237.779C370.057 238.976 370.43 240.717 370.43 243.004C370.43 245.291 370.057 247.039 369.31 248.249C368.577 249.459 367.497 250.064 366.07 250.064C364.657 250.064 363.577 249.459 362.83 248.249C362.084 247.039 361.71 245.291 361.71 243.004C361.71 240.731 362.084 238.989 362.83 237.779C363.577 236.569 364.657 235.964 366.07 235.964ZM363.13 243.004C363.13 244.626 363.277 245.896 363.57 246.813L368.01 237.978C367.543 237.353 366.897 237.041 366.07 237.041C365.15 237.041 364.43 237.533 363.91 238.517C363.39 239.487 363.13 240.983 363.13 243.004ZM366.07 248.967C367.003 248.967 367.73 248.482 368.25 247.511C368.77 246.528 369.03 245.025 369.03 243.004C369.03 241.289 368.863 239.959 368.53 239.015L364.09 247.93C364.57 248.622 365.23 248.967 366.07 248.967Z" fill="url(#paint63_linear_22_533)"/>
<path d="M367.27 271.601H370.21V272.658H362.59V271.601H365.99V260.392L362.75 262.327L362.19 261.429L366.19 258.956H367.27V271.601Z" fill="url(#paint64_linear_22_533)"/>
<path d="M366.07 281.55C367.497 281.55 368.577 282.155 369.31 283.365C370.057 284.561 370.43 286.303 370.43 288.59C370.43 290.877 370.057 292.625 369.31 293.835C368.577 295.045 367.497 295.65 366.07 295.65C364.657 295.65 363.577 295.045 362.83 293.835C362.084 292.625 361.71 290.877 361.71 288.59C361.71 286.316 362.084 284.574 362.83 283.365C363.577 282.155 364.657 281.55 366.07 281.55ZM363.13 288.59C363.13 290.212 363.277 291.482 363.57 292.399L368.01 283.564C367.543 282.939 366.897 282.627 366.07 282.627C365.15 282.627 364.43 283.119 363.91 284.102C363.39 285.073 363.13 286.569 363.13 288.59ZM366.07 294.553C367.003 294.553 367.73 294.068 368.25 293.097C368.77 292.113 369.03 290.611 369.03 288.59C369.03 286.875 368.863 285.545 368.53 284.601L364.09 293.516C364.57 294.207 365.23 294.553 366.07 294.553Z" fill="url(#paint65_linear_22_533)"/>
<path d="M367.27 317.186H370.21V318.243H362.59V317.186H365.99V305.978L362.75 307.912L362.19 307.015L366.19 304.542H367.27V317.186Z" fill="url(#paint66_linear_22_533)"/>
<path d="M366.07 327.135C367.497 327.135 368.577 327.74 369.31 328.95C370.057 330.147 370.43 331.888 370.43 334.175C370.43 336.462 370.057 338.211 369.31 339.421C368.577 340.63 367.497 341.235 366.07 341.235C364.657 341.235 363.577 340.63 362.83 339.421C362.084 338.211 361.71 336.462 361.71 334.175C361.71 331.902 362.084 330.16 362.83 328.95C363.577 327.74 364.657 327.135 366.07 327.135ZM363.13 334.175C363.13 335.797 363.277 337.067 363.57 337.985L368.01 329.15C367.543 328.525 366.897 328.212 366.07 328.212C365.15 328.212 364.43 328.704 363.91 329.688C363.39 330.659 363.13 332.154 363.13 334.175ZM366.07 340.139C367.003 340.139 367.73 339.653 368.25 338.683C368.77 337.699 369.03 336.196 369.03 334.175C369.03 332.46 368.863 331.131 368.53 330.187L364.09 339.101C364.57 339.793 365.23 340.139 366.07 340.139Z" fill="url(#paint67_linear_22_533)"/>
<path d="M366.07 349.928C367.497 349.928 368.577 350.533 369.31 351.743C370.057 352.94 370.43 354.681 370.43 356.968C370.43 359.255 370.057 361.003 369.31 362.213C368.577 363.423 367.497 364.028 366.07 364.028C364.657 364.028 363.577 363.423 362.83 362.213C362.084 361.003 361.71 359.255 361.71 356.968C361.71 354.695 362.084 352.953 362.83 351.743C363.577 350.533 364.657 349.928 366.07 349.928ZM363.13 356.968C363.13 358.59 363.277 359.86 363.57 360.777L368.01 351.942C367.543 351.317 366.897 351.005 366.07 351.005C365.15 351.005 364.43 351.497 363.91 352.481C363.39 353.451 363.13 354.947 363.13 356.968ZM366.07 362.931C367.003 362.931 367.73 362.446 368.25 361.475C368.77 360.492 369.03 358.989 369.03 356.968C369.03 355.253 368.863 353.923 368.53 352.979L364.09 361.894C364.57 362.586 365.23 362.931 366.07 362.931Z" fill="url(#paint68_linear_22_533)"/>
<path d="M367.27 385.565H370.21V386.622H362.59V385.565H365.99V374.356L362.75 376.291L362.19 375.393L366.19 372.92H367.27V385.565Z" fill="url(#paint69_linear_22_533)"/>
<path d="M366.07 395.514C367.497 395.514 368.577 396.119 369.31 397.329C370.057 398.525 370.43 400.267 370.43 402.554C370.43 404.841 370.057 406.589 369.31 407.799C368.577 409.009 367.497 409.614 366.07 409.614C364.657 409.614 363.577 409.009 362.83 407.799C362.084 406.589 361.71 404.841 361.71 402.554C361.71 400.28 362.084 398.538 362.83 397.329C363.577 396.119 364.657 395.514 366.07 395.514ZM363.13 402.554C363.13 404.176 363.277 405.446 363.57 406.363L368.01 397.528C367.543 396.903 366.897 396.591 366.07 396.591C365.15 396.591 364.43 397.083 363.91 398.066C363.39 399.037 363.13 400.533 363.13 402.554ZM366.07 408.517C367.003 408.517 367.73 408.032 368.25 407.061C368.77 406.077 369.03 404.575 369.03 402.554C369.03 400.839 368.863 399.509 368.53 398.565L364.09 407.48C364.57 408.171 365.23 408.517 366.07 408.517Z" fill="url(#paint70_linear_22_533)"/>
<path d="M367.27 431.15H370.21V432.207H362.59V431.15H365.99V419.942L362.75 421.876L362.19 420.979L366.19 418.506H367.27V431.15Z" fill="url(#paint71_linear_22_533)"/>
<path d="M367.27 453.943H370.21V455H362.59V453.943H365.99V442.735L362.75 444.669L362.19 443.772L366.19 441.299H367.27V453.943Z" fill="url(#paint72_linear_22_533)"/>
<path d="M310.36 190.378C311.786 190.378 312.866 190.983 313.599 192.193C314.346 193.39 314.719 195.132 314.719 197.419C314.719 199.705 314.346 201.454 313.599 202.664C312.866 203.874 311.786 204.479 310.36 204.479C308.946 204.479 307.867 203.874 307.12 202.664C306.373 201.454 306 199.705 306 197.419C306 195.145 306.373 193.403 307.12 192.193C307.867 190.983 308.946 190.378 310.36 190.378ZM307.42 197.419C307.42 199.041 307.567 200.31 307.86 201.228L312.3 192.393C311.833 191.768 311.186 191.455 310.36 191.455C309.44 191.455 308.72 191.947 308.2 192.931C307.68 193.902 307.42 195.398 307.42 197.419ZM310.36 203.382C311.293 203.382 312.02 202.896 312.54 201.926C313.06 200.942 313.319 199.439 313.319 197.419C313.319 195.703 313.153 194.374 312.82 193.43L308.38 202.345C308.86 203.036 309.52 203.382 310.36 203.382Z" fill="url(#paint73_linear_22_533)"/>
<path d="M310.36 213.171C311.786 213.171 312.866 213.776 313.599 214.986C314.346 216.183 314.719 217.924 314.719 220.211C314.719 222.498 314.346 224.247 313.599 225.457C312.866 226.666 311.786 227.271 310.36 227.271C308.946 227.271 307.867 226.666 307.12 225.457C306.373 224.247 306 222.498 306 220.211C306 217.938 306.373 216.196 307.12 214.986C307.867 213.776 308.946 213.171 310.36 213.171ZM307.42 220.211C307.42 221.833 307.567 223.103 307.86 224.021L312.3 215.186C311.833 214.561 311.186 214.248 310.36 214.248C309.44 214.248 308.72 214.74 308.2 215.724C307.68 216.695 307.42 218.19 307.42 220.211ZM310.36 226.174C311.293 226.174 312.02 225.689 312.54 224.719C313.06 223.735 313.319 222.232 313.319 220.211C313.319 218.496 313.153 217.167 312.82 216.223L308.38 225.137C308.86 225.829 309.52 226.174 310.36 226.174Z" fill="url(#paint74_linear_22_533)"/>
<path d="M311.56 248.808H314.499V249.865H306.88V248.808H310.28V237.599L307.04 239.534L306.48 238.636L310.48 236.163H311.56V248.808Z" fill="url(#paint75_linear_22_533)"/>
<path d="M310.36 258.757C311.786 258.757 312.866 259.362 313.599 260.572C314.346 261.768 314.719 263.51 314.719 265.797C314.719 268.084 314.346 269.832 313.599 271.042C312.866 272.252 311.786 272.857 310.36 272.857C308.946 272.857 307.867 272.252 307.12 271.042C306.373 269.832 306 268.084 306 265.797C306 263.523 306.373 261.782 307.12 260.572C307.867 259.362 308.946 258.757 310.36 258.757ZM307.42 265.797C307.42 267.419 307.567 268.689 307.86 269.606L312.3 260.771C311.833 260.146 311.186 259.834 310.36 259.834C309.44 259.834 308.72 260.326 308.2 261.31C307.68 262.28 307.42 263.776 307.42 265.797ZM310.36 271.76C311.293 271.76 312.02 271.275 312.54 270.304C313.06 269.32 313.319 267.818 313.319 265.797C313.319 264.082 313.153 262.752 312.82 261.808L308.38 270.723C308.86 271.414 309.52 271.76 310.36 271.76Z" fill="url(#paint76_linear_22_533)"/>
<path d="M311.56 294.393H314.499V295.45H306.88V294.393H310.28V283.185L307.04 285.12L306.48 284.222L310.48 281.749H311.56V294.393Z" fill="url(#paint77_linear_22_533)"/>
<path d="M311.56 317.186H314.499V318.243H306.88V317.186H310.28V305.978L307.04 307.912L306.48 307.015L310.48 304.542H311.56V317.186Z" fill="url(#paint78_linear_22_533)"/>
<path d="M348.7 157.637H351.64V158.694H344.02V157.637H347.42V146.428L344.18 148.363L343.62 147.465L347.62 144.992H348.7V157.637Z" fill="url(#paint79_linear_22_533)"/>
<path d="M347.5 167.586C348.927 167.586 350.006 168.191 350.74 169.4C351.486 170.597 351.86 172.339 351.86 174.626C351.86 176.913 351.486 178.661 350.74 179.871C350.006 181.081 348.927 181.686 347.5 181.686C346.087 181.686 345.007 181.081 344.26 179.871C343.514 178.661 343.14 176.913 343.14 174.626C343.14 172.352 343.514 170.61 344.26 169.4C345.007 168.191 346.087 167.586 347.5 167.586ZM344.56 174.626C344.56 176.248 344.707 177.518 345 178.435L349.44 169.6C348.973 168.975 348.327 168.663 347.5 168.663C346.58 168.663 345.86 169.155 345.34 170.138C344.82 171.109 344.56 172.605 344.56 174.626ZM347.5 180.589C348.433 180.589 349.16 180.104 349.68 179.133C350.2 178.149 350.46 176.647 350.46 174.626C350.46 172.911 350.293 171.581 349.96 170.637L345.52 179.552C346 180.243 346.66 180.589 347.5 180.589Z" fill="url(#paint80_linear_22_533)"/>
<path d="M348.7 203.222H351.64V204.279H344.02V203.222H347.42V192.014L344.18 193.948L343.62 193.051L347.62 190.578H348.7V203.222Z" fill="url(#paint81_linear_22_533)"/>
<path d="M348.7 226.015H351.64V227.072H344.02V226.015H347.42V214.807L344.18 216.741L343.62 215.844L347.62 213.371H348.7V226.015Z" fill="url(#paint82_linear_22_533)"/>
<path d="M347.5 235.964C348.927 235.964 350.006 236.569 350.74 237.779C351.486 238.976 351.86 240.717 351.86 243.004C351.86 245.291 351.486 247.039 350.74 248.249C350.006 249.459 348.927 250.064 347.5 250.064C346.087 250.064 345.007 249.459 344.26 248.249C343.514 247.039 343.14 245.291 343.14 243.004C343.14 240.731 343.514 238.989 344.26 237.779C345.007 236.569 346.087 235.964 347.5 235.964ZM344.56 243.004C344.56 244.626 344.707 245.896 345 246.813L349.44 237.978C348.973 237.353 348.327 237.041 347.5 237.041C346.58 237.041 345.86 237.533 345.34 238.517C344.82 239.487 344.56 240.983 344.56 243.004ZM347.5 248.967C348.433 248.967 349.16 248.482 349.68 247.511C350.2 246.528 350.46 245.025 350.46 243.004C350.46 241.289 350.293 239.959 349.96 239.015L345.52 247.93C346 248.622 346.66 248.967 347.5 248.967Z" fill="url(#paint83_linear_22_533)"/>
<path d="M348.7 271.601H351.64V272.658H344.02V271.601H347.42V260.392L344.18 262.327L343.62 261.429L347.62 258.956H348.7V271.601Z" fill="url(#paint84_linear_22_533)"/>
<path d="M348.7 294.393H351.64V295.45H344.02V294.393H347.42V283.185L344.18 285.12L343.62 284.222L347.62 281.749H348.7V294.393Z" fill="url(#paint85_linear_22_533)"/>
<path d="M347.5 304.342C348.927 304.342 350.006 304.947 350.74 306.157C351.486 307.354 351.86 309.096 351.86 311.383C351.86 313.669 351.486 315.418 350.74 316.628C350.006 317.838 348.927 318.443 347.5 318.443C346.087 318.443 345.007 317.838 344.26 316.628C343.514 315.418 343.14 313.669 343.14 311.383C343.14 309.109 343.514 307.367 344.26 306.157C345.007 304.947 346.087 304.342 347.5 304.342ZM344.56 311.383C344.56 313.005 344.707 314.274 345 315.192L349.44 306.357C348.973 305.732 348.327 305.419 347.5 305.419C346.58 305.419 345.86 305.911 345.34 306.895C344.82 307.866 344.56 309.362 344.56 311.383ZM347.5 317.346C348.433 317.346 349.16 316.86 349.68 315.89C350.2 314.906 350.46 313.404 350.46 311.383C350.46 309.667 350.293 308.338 349.96 307.394L345.52 316.309C346 317 346.66 317.346 347.5 317.346Z" fill="url(#paint86_linear_22_533)"/>
<path d="M348.7 339.979H351.64V341.036H344.02V339.979H347.42V328.771L344.18 330.705L343.62 329.808L347.62 327.335H348.7V339.979Z" fill="url(#paint87_linear_22_533)"/>
<path d="M347.5 349.928C348.927 349.928 350.006 350.533 350.74 351.743C351.486 352.94 351.86 354.681 351.86 356.968C351.86 359.255 351.486 361.003 350.74 362.213C350.006 363.423 348.927 364.028 347.5 364.028C346.087 364.028 345.007 363.423 344.26 362.213C343.514 361.003 343.14 359.255 343.14 356.968C343.14 354.695 343.514 352.953 344.26 351.743C345.007 350.533 346.087 349.928 347.5 349.928ZM344.56 356.968C344.56 358.59 344.707 359.86 345 360.777L349.44 351.942C348.973 351.317 348.327 351.005 347.5 351.005C346.58 351.005 345.86 351.497 345.34 352.481C344.82 353.451 344.56 354.947 344.56 356.968ZM347.5 362.931C348.433 362.931 349.16 362.446 349.68 361.475C350.2 360.492 350.46 358.989 350.46 356.968C350.46 355.253 350.293 353.923 349.96 352.979L345.52 361.894C346 362.586 346.66 362.931 347.5 362.931Z" fill="url(#paint88_linear_22_533)"/>
<path d="M384.64 144.793C386.067 144.793 387.147 145.398 387.88 146.608C388.627 147.804 389 149.546 389 151.833C389 154.12 388.627 155.868 387.88 157.078C387.147 158.288 386.067 158.893 384.64 158.893C383.227 158.893 382.147 158.288 381.401 157.078C380.654 155.868 380.281 154.12 380.281 151.833C380.281 149.559 380.654 147.818 381.401 146.608C382.147 145.398 383.227 144.793 384.64 144.793ZM381.701 151.833C381.701 153.455 381.847 154.725 382.14 155.642L386.58 146.807C386.114 146.182 385.467 145.87 384.64 145.87C383.72 145.87 383 146.362 382.48 147.346C381.96 148.316 381.701 149.812 381.701 151.833ZM384.64 157.796C385.574 157.796 386.3 157.311 386.82 156.34C387.34 155.356 387.6 153.854 387.6 151.833C387.6 150.118 387.433 148.788 387.1 147.844L382.66 156.759C383.14 157.45 383.8 157.796 384.64 157.796Z" fill="url(#paint89_linear_22_533)"/>
<path d="M385.84 180.429H388.78V181.486H381.161V180.429H384.56V169.221L381.321 171.156L380.761 170.258L384.76 167.785H385.84V180.429Z" fill="url(#paint90_linear_22_533)"/>
<path d="M385.84 203.222H388.78V204.279H381.161V203.222H384.56V192.014L381.321 193.948L380.761 193.051L384.76 190.578H385.84V203.222Z" fill="url(#paint91_linear_22_533)"/>
<path d="M384.64 213.171C386.067 213.171 387.147 213.776 387.88 214.986C388.627 216.183 389 217.924 389 220.211C389 222.498 388.627 224.247 387.88 225.457C387.147 226.666 386.067 227.271 384.64 227.271C383.227 227.271 382.147 226.666 381.401 225.457C380.654 224.247 380.281 222.498 380.281 220.211C380.281 217.938 380.654 216.196 381.401 214.986C382.147 213.776 383.227 213.171 384.64 213.171ZM381.701 220.211C381.701 221.833 381.847 223.103 382.14 224.021L386.58 215.186C386.114 214.561 385.467 214.248 384.64 214.248C383.72 214.248 383 214.74 382.48 215.724C381.96 216.695 381.701 218.19 381.701 220.211ZM384.64 226.174C385.574 226.174 386.3 225.689 386.82 224.719C387.34 223.735 387.6 222.232 387.6 220.211C387.6 218.496 387.433 217.167 387.1 216.223L382.66 225.137C383.14 225.829 383.8 226.174 384.64 226.174Z" fill="url(#paint92_linear_22_533)"/>
<path d="M384.64 235.964C386.067 235.964 387.147 236.569 387.88 237.779C388.627 238.976 389 240.717 389 243.004C389 245.291 388.627 247.039 387.88 248.249C387.147 249.459 386.067 250.064 384.64 250.064C383.227 250.064 382.147 249.459 381.401 248.249C380.654 247.039 380.281 245.291 380.281 243.004C380.281 240.731 380.654 238.989 381.401 237.779C382.147 236.569 383.227 235.964 384.64 235.964ZM381.701 243.004C381.701 244.626 381.847 245.896 382.14 246.813L386.58 237.978C386.114 237.353 385.467 237.041 384.64 237.041C383.72 237.041 383 237.533 382.48 238.517C381.96 239.487 381.701 240.983 381.701 243.004ZM384.64 248.967C385.574 248.967 386.3 248.482 386.82 247.511C387.34 246.528 387.6 245.025 387.6 243.004C387.6 241.289 387.433 239.959 387.1 239.015L382.66 247.93C383.14 248.622 383.8 248.967 384.64 248.967Z" fill="url(#paint93_linear_22_533)"/>
</g>
<path fill-rule="evenodd" clip-rule="evenodd" d="M93.0111 406.114V401.777L81.0228 406.233H81.0001V410.683H81.0228L93.0111 415.139V410.796L86.8637 408.447L93.0111 406.108V406.114Z" fill="#F7DD43"/>
<path fill-rule="evenodd" clip-rule="evenodd" d="M162.449 414.923V410.586L168.59 408.253L162.449 405.92V401.584L174.42 406.04H174.448V410.496H174.42L162.449 414.929V414.923ZM157.306 395.448L150.267 418.045H154.445L161.484 395.448H157.306Z" fill="#F7DD43"/>
<path fill-rule="evenodd" clip-rule="evenodd" d="M110.625 401.181C111.817 402.486 112.441 404.212 112.367 405.977V415.604H108.19V406.863C108.241 405.886 107.928 404.933 107.315 404.172C106.736 403.497 105.879 403.122 104.988 403.162C102.371 403.162 101.06 404.978 101.06 408.605V415.604H96.8824V399.801H101.06V401.226C102.388 399.938 104.188 399.251 106.038 399.33C107.764 399.257 109.433 399.932 110.625 401.181Z" fill="#F7DD43"/>
<path fill-rule="evenodd" clip-rule="evenodd" d="M117.692 393.007V415.604H121.869V393.007H117.692Z" fill="#F7DD43"/>
<path fill-rule="evenodd" clip-rule="evenodd" d="M145.494 415.604H142.008L138.591 406.295L135.14 415.604H131.655L125.797 399.773H130.264L133.556 409.241L136.951 399.773H140.215L143.609 409.269L146.901 399.773H151.368L145.505 415.604H145.494Z" fill="#F7DD43"/>
<path d="M197.135 425.996C192.855 425.996 188.357 425.184 184.832 423.231V388.764C188.302 386.866 192.799 386 197.135 386C201.471 386 205.862 386.811 209.328 388.764V401.989H200.601V392.99C199.573 392.557 198.324 392.395 197.08 392.395C195.836 392.395 194.693 392.557 193.61 392.99V419.005C194.638 419.439 195.831 419.6 197.08 419.6C198.329 419.6 199.518 419.439 200.601 419.005V410.011H209.328V423.235C205.913 425.133 201.416 425.945 197.135 426V425.996Z" fill="#F7DD43"/>
<path d="M225.695 425.995C221.087 425.995 216.645 425.019 213.12 423.014V388.926C216.59 386.977 221.036 386 225.695 386C230.353 386 234.689 386.921 238.159 388.926V423.014C234.744 425.019 230.247 425.94 225.695 425.995ZM229.436 393.1C228.408 392.667 227.16 392.451 225.644 392.451C224.128 392.451 222.934 392.667 221.902 393.1V418.844C222.93 419.332 224.179 419.549 225.644 419.549C227.109 419.549 228.353 419.332 229.436 418.844V393.1Z" fill="#F7DD43"/>
<path d="M253.387 411.361H251.056V425.507H242.223V386.488H253.387C258.7 386.488 262.709 387.571 265.852 389.792V408.057C262.764 410.227 258.696 411.361 253.387 411.361ZM257.074 393.207C256.262 392.612 255.175 392.34 253.332 392.34H250.946V405.509H253.332C255.12 405.509 256.203 405.238 257.074 404.698V393.207Z" fill="#F7DD43"/>
<path d="M284.329 425.507V411.361H277.827V425.507H269.049V388.871C272.247 386.972 276.744 386 281.08 386C285.416 386 289.858 386.977 293.056 388.871V425.507H284.329ZM284.329 392.773C283.408 392.34 282.269 392.124 281.076 392.124C279.883 392.124 278.745 392.34 277.823 392.773V405.182H284.325V392.773H284.329Z" fill="#F7DD43"/>
<rect x="120" y="799" width="135" height="5" rx="2.5" fill="white"/>
<path d="M78 0H297C294.894 0.602689 293.418 2.49525 293.345 4.68446L293.317 5.5618C293.317 19.0587 282.375 30 268.878 30H106.122C92.6249 30 81.6835 19.0587 81.6835 5.5618L81.6545 4.68447C81.5823 2.49525 80.1059 0.602689 78 0Z" fill="#1E1E1E"/>
<path opacity="0.35" d="M336.5 22C336.5 20.8034 337.47 19.8334 338.667 19.8334H355.333C356.53 19.8334 357.5 20.8034 357.5 22V28C357.5 29.1967 356.53 30.1667 355.333 30.1667H338.667C337.47 30.1667 336.5 29.1967 336.5 28V22Z" fill="white" stroke="#1E1E1E"/>
<path opacity="0.4" d="M359 23V27C359.805 26.6613 360.328 25.8732 360.328 25C360.328 24.1269 359.805 23.3388 359 23Z" fill="white"/>
<path d="M338 22.6667C338 21.9303 338.597 21.3334 339.333 21.3334H354.667C355.403 21.3334 356 21.9303 356 22.6667V27.3334C356 28.0698 355.403 28.6667 354.667 28.6667H339.333C338.597 28.6667 338 28.0698 338 27.3334V22.6667Z" fill="white"/>
<path fill-rule="evenodd" clip-rule="evenodd" d="M323.33 21.608C325.546 21.6081 327.677 22.4596 329.283 23.9863C329.404 24.1042 329.598 24.1027 329.717 23.983L330.873 22.8163C330.933 22.7556 330.967 22.6734 330.966 22.5878C330.966 22.5022 330.931 22.4204 330.87 22.3603C326.655 18.3208 320.005 18.3208 315.79 22.3603C315.729 22.4203 315.694 22.5021 315.694 22.5877C315.693 22.6733 315.727 22.7556 315.787 22.8163L316.943 23.983C317.062 24.1029 317.256 24.1044 317.377 23.9863C318.983 22.4595 321.114 21.608 323.33 21.608ZM323.33 25.4037C324.548 25.4036 325.722 25.8561 326.624 26.6733C326.746 26.7893 326.939 26.7868 327.058 26.6677L328.212 25.501C328.273 25.4398 328.307 25.3568 328.306 25.2705C328.305 25.1843 328.27 25.102 328.208 25.042C325.459 22.4856 321.204 22.4856 318.455 25.042C318.393 25.102 318.358 25.1843 318.357 25.2706C318.356 25.3569 318.39 25.4399 318.451 25.501L319.605 26.6677C319.724 26.7868 319.917 26.7893 320.039 26.6733C320.941 25.8567 322.114 25.4042 323.33 25.4037ZM325.643 27.9575C325.645 28.044 325.611 28.1274 325.549 28.188L323.552 30.2037C323.493 30.2629 323.414 30.2963 323.33 30.2963C323.247 30.2963 323.167 30.2629 323.109 30.2037L321.111 28.188C321.049 28.1274 321.015 28.0439 321.017 27.9574C321.019 27.8709 321.056 27.789 321.121 27.731C322.396 26.6521 324.264 26.6521 325.54 27.731C325.604 27.7891 325.642 27.871 325.643 27.9575Z" fill="white"/>
<path fill-rule="evenodd" clip-rule="evenodd" d="M309.667 19.6666H308.667C308.114 19.6666 307.667 20.1143 307.667 20.6666V29.3333C307.667 29.8856 308.114 30.3333 308.667 30.3333H309.667C310.219 30.3333 310.667 29.8856 310.667 29.3333V20.6666C310.667 20.1143 310.219 19.6666 309.667 19.6666ZM304 22H305C305.552 22 306 22.4477 306 23V29.3333C306 29.8856 305.552 30.3333 305 30.3333H304C303.448 30.3333 303 29.8856 303 29.3333V23C303 22.4477 303.448 22 304 22ZM300.333 24.3333H299.333C298.781 24.3333 298.333 24.781 298.333 25.3333V29.3333C298.333 29.8856 298.781 30.3333 299.333 30.3333H300.333C300.886 30.3333 301.333 29.8856 301.333 29.3333V25.3333C301.333 24.781 300.886 24.3333 300.333 24.3333ZM295.667 26.3333H294.667C294.114 26.3333 293.667 26.781 293.667 27.3333V29.3333C293.667 29.8856 294.114 30.3333 294.667 30.3333H295.667C296.219 30.3333 296.667 29.8856 296.667 29.3333V27.3333C296.667 26.781 296.219 26.3333 295.667 26.3333Z" fill="white"/>
<path d="M37.3207 30.2563C40.0087 30.2563 41.6054 28.1543 41.6054 24.5947C41.6054 23.2544 41.349 22.1265 40.8583 21.2549C40.1479 19.8999 38.9247 19.1675 37.3793 19.1675C35.0795 19.1675 33.4535 20.7129 33.4535 22.8809C33.4535 24.917 34.9184 26.3965 36.9325 26.3965C38.1703 26.3965 39.1737 25.8179 39.6718 24.8145H39.6938C39.6938 24.8145 39.7231 24.8145 39.7304 24.8145C39.745 24.8145 39.7963 24.8145 39.7963 24.8145C39.7963 27.2314 38.8808 28.6743 37.3354 28.6743C36.4272 28.6743 35.724 28.1763 35.4823 27.3779H33.6C33.9149 29.1138 35.3871 30.2563 37.3207 30.2563ZM37.3866 24.895C36.1708 24.895 35.3065 24.0308 35.3065 22.8223C35.3065 21.6431 36.2148 20.7422 37.394 20.7422C38.5732 20.7422 39.4814 21.6577 39.4814 22.8516C39.4814 24.0308 38.5951 24.895 37.3866 24.895Z" fill="white"/>
<path d="M44.6965 30.1538C45.3923 30.1538 45.8684 29.6558 45.8684 28.9966C45.8684 28.3301 45.3923 27.8394 44.6965 27.8394C44.008 27.8394 43.5246 28.3301 43.5246 28.9966C43.5246 29.6558 44.008 30.1538 44.6965 30.1538ZM44.6965 24.6606C45.3923 24.6606 45.8684 24.1699 45.8684 23.5107C45.8684 22.8442 45.3923 22.3535 44.6965 22.3535C44.008 22.3535 43.5246 22.8442 43.5246 23.5107C43.5246 24.1699 44.008 24.6606 44.6965 24.6606Z" fill="white"/>
<path d="M52.7241 30H54.5332V28.0298H55.9614V26.4331H54.5332V19.4312H51.8672C49.9995 22.2437 48.5127 24.5947 47.5606 26.3452V28.0298H52.7241V30ZM49.311 26.3672C50.5415 24.1992 51.6401 22.4634 52.6509 20.9692H52.7534V26.4771H49.311V26.3672Z" fill="white"/>
<path d="M59.99 30H61.8797V19.4312H59.9974L57.2361 21.3647V23.1812L59.8655 21.3354H59.99V30Z" fill="white"/>
</g>
<defs>
<filter id="filter0_f_22_533" x="-883.19" y="-400.19" width="2141.38" height="1500.38" filterUnits="userSpaceOnUse" color-interpolation-filters="sRGB">
<feFlood flood-opacity="0" result="BackgroundImageFix"/>
<feBlend mode="normal" in="SourceGraphic" in2="BackgroundImageFix" result="shape"/>
<feGaussianBlur stdDeviation="200.095" result="effect1_foregroundBlur_22_533"/>
</filter>
<linearGradient id="paint0_linear_22_533" x1="18.5" y1="455" x2="18.5" y2="766.381" gradientUnits="userSpaceOnUse">
<stop stop-color="#F7DD43"/>
<stop offset="1" stop-color="#F7DD43" stop-opacity="0"/>
</linearGradient>
<linearGradient id="paint1_linear_22_533" x1="18.5" y1="455" x2="18.5" y2="766.381" gradientUnits="userSpaceOnUse">
<stop stop-color="#F7DD43"/>
<stop offset="1" stop-color="#F7DD43" stop-opacity="0"/>
</linearGradient>
<linearGradient id="paint2_linear_22_533" x1="18.5" y1="455" x2="18.5" y2="766.381" gradientUnits="userSpaceOnUse">
<stop stop-color="#F7DD43"/>
<stop offset="1" stop-color="#F7DD43" stop-opacity="0"/>
</linearGradient>
<linearGradient id="paint3_linear_22_533" x1="18.5" y1="455" x2="18.5" y2="766.381" gradientUnits="userSpaceOnUse">
<stop stop-color="#F7DD43"/>
<stop offset="1" stop-color="#F7DD43" stop-opacity="0"/>
</linearGradient>
<linearGradient id="paint4_linear_22_533" x1="18.5" y1="455" x2="18.5" y2="766.381" gradientUnits="userSpaceOnUse">
<stop stop-color="#F7DD43"/>
<stop offset="1" stop-color="#F7DD43" stop-opacity="0"/>
</linearGradient>
<linearGradient id="paint5_linear_22_533" x1="18.5" y1="455" x2="18.5" y2="766.381" gradientUnits="userSpaceOnUse">
<stop stop-color="#F7DD43"/>
<stop offset="1" stop-color="#F7DD43" stop-opacity="0"/>
</linearGradient>
<linearGradient id="paint6_linear_22_533" x1="18.5" y1="455" x2="18.5" y2="766.381" gradientUnits="userSpaceOnUse">
<stop stop-color="#F7DD43"/>
<stop offset="1" stop-color="#F7DD43" stop-opacity="0"/>
</linearGradient>
<linearGradient id="paint7_linear_22_533" x1="18.5" y1="455" x2="18.5" y2="766.381" gradientUnits="userSpaceOnUse">
<stop stop-color="#F7DD43"/>
<stop offset="1" stop-color="#F7DD43" stop-opacity="0"/>
</linearGradient>
<linearGradient id="paint8_linear_22_533" x1="18.5" y1="455" x2="18.5" y2="766.381" gradientUnits="userSpaceOnUse">
<stop stop-color="#F7DD43"/>
<stop offset="1" stop-color="#F7DD43" stop-opacity="0"/>
</linearGradient>
<linearGradient id="paint9_linear_22_533" x1="18.5" y1="455" x2="18.5" y2="766.381" gradientUnits="userSpaceOnUse">
<stop stop-color="#F7DD43"/>
<stop offset="1" stop-color="#F7DD43" stop-opacity="0"/>
</linearGradient>
<linearGradient id="paint10_linear_22_533" x1="18.5" y1="455" x2="18.5" y2="766.381" gradientUnits="userSpaceOnUse">
<stop stop-color="#F7DD43"/>
<stop offset="1" stop-color="#F7DD43" stop-opacity="0"/>
</linearGradient>
<linearGradient id="paint11_linear_22_533" x1="18.5" y1="455" x2="18.5" y2="766.381" gradientUnits="userSpaceOnUse">
<stop stop-color="#F7DD43"/>
<stop offset="1" stop-color="#F7DD43" stop-opacity="0"/>
</linearGradient>
<linearGradient id="paint12_linear_22_533" x1="18.5" y1="455" x2="18.5" y2="766.381" gradientUnits="userSpaceOnUse">
<stop stop-color="#F7DD43"/>
<stop offset="1" stop-color="#F7DD43" stop-opacity="0"/>
</linearGradient>
<linearGradient id="paint13_linear_22_533" x1="18.5" y1="455" x2="18.5" y2="766.381" gradientUnits="userSpaceOnUse">
<stop stop-color="#F7DD43"/>
<stop offset="1" stop-color="#F7DD43" stop-opacity="0"/>
</linearGradient>
<linearGradient id="paint14_linear_22_533" x1="18.5" y1="455" x2="18.5" y2="766.381" gradientUnits="userSpaceOnUse">
<stop stop-color="#F7DD43"/>
<stop offset="1" stop-color="#F7DD43" stop-opacity="0"/>
</linearGradient>
<linearGradient id="paint15_linear_22_533" x1="18.5" y1="455" x2="18.5" y2="766.381" gradientUnits="userSpaceOnUse">
<stop stop-color="#F7DD43"/>
<stop offset="1" stop-color="#F7DD43" stop-opacity="0"/>
</linearGradient>
<linearGradient id="paint16_linear_22_533" x1="18.5" y1="455" x2="18.5" y2="766.381" gradientUnits="userSpaceOnUse">
<stop stop-color="#F7DD43"/>
<stop offset="1" stop-color="#F7DD43" stop-opacity="0"/>
</linearGradient>
<linearGradient id="paint17_linear_22_533" x1="18.5" y1="455" x2="18.5" y2="766.381" gradientUnits="userSpaceOnUse">
<stop stop-color="#F7DD43"/>
<stop offset="1" stop-color="#F7DD43" stop-opacity="0"/>
</linearGradient>
<linearGradient id="paint18_linear_22_533" x1="18.5" y1="455" x2="18.5" y2="766.381" gradientUnits="userSpaceOnUse">
<stop stop-color="#F7DD43"/>
<stop offset="1" stop-color="#F7DD43" stop-opacity="0"/>
</linearGradient>
<linearGradient id="paint19_linear_22_533" x1="18.5" y1="455" x2="18.5" y2="766.381" gradientUnits="userSpaceOnUse">
<stop stop-color="#F7DD43"/>
<stop offset="1" stop-color="#F7DD43" stop-opacity="0"/>
</linearGradient>
<linearGradient id="paint20_linear_22_533" x1="18.5" y1="455" x2="18.5" y2="766.381" gradientUnits="userSpaceOnUse">
<stop stop-color="#F7DD43"/>
<stop offset="1" stop-color="#F7DD43" stop-opacity="0"/>
</linearGradient>
<linearGradient id="paint21_linear_22_533" x1="18.5" y1="455" x2="18.5" y2="766.381" gradientUnits="userSpaceOnUse">
<stop stop-color="#F7DD43"/>
<stop offset="1" stop-color="#F7DD43" stop-opacity="0"/>
</linearGradient>
<linearGradient id="paint22_linear_22_533" x1="18.5" y1="455" x2="18.5" y2="766.381" gradientUnits="userSpaceOnUse">
<stop stop-color="#F7DD43"/>
<stop offset="1" stop-color="#F7DD43" stop-opacity="0"/>
</linearGradient>
<linearGradient id="paint23_linear_22_533" x1="18.5" y1="455" x2="18.5" y2="766.381" gradientUnits="userSpaceOnUse">
<stop stop-color="#F7DD43"/>
<stop offset="1" stop-color="#F7DD43" stop-opacity="0"/>
</linearGradient>
<linearGradient id="paint24_linear_22_533" x1="18.5" y1="455" x2="18.5" y2="766.381" gradientUnits="userSpaceOnUse">
<stop stop-color="#F7DD43"/>
<stop offset="1" stop-color="#F7DD43" stop-opacity="0"/>
</linearGradient>
<linearGradient id="paint25_linear_22_533" x1="18.5" y1="455" x2="18.5" y2="766.381" gradientUnits="userSpaceOnUse">
<stop stop-color="#F7DD43"/>
<stop offset="1" stop-color="#F7DD43" stop-opacity="0"/>
</linearGradient>
<linearGradient id="paint26_linear_22_533" x1="18.5" y1="455" x2="18.5" y2="766.381" gradientUnits="userSpaceOnUse">
<stop stop-color="#F7DD43"/>
<stop offset="1" stop-color="#F7DD43" stop-opacity="0"/>
</linearGradient>
<linearGradient id="paint27_linear_22_533" x1="18.5" y1="455" x2="18.5" y2="766.381" gradientUnits="userSpaceOnUse">
<stop stop-color="#F7DD43"/>
<stop offset="1" stop-color="#F7DD43" stop-opacity="0"/>
</linearGradient>
<linearGradient id="paint28_linear_22_533" x1="18.5" y1="455" x2="18.5" y2="766.381" gradientUnits="userSpaceOnUse">
<stop stop-color="#F7DD43"/>
<stop offset="1" stop-color="#F7DD43" stop-opacity="0"/>
</linearGradient>
<linearGradient id="paint29_linear_22_533" x1="18.5" y1="455" x2="18.5" y2="766.381" gradientUnits="userSpaceOnUse">
<stop stop-color="#F7DD43"/>
<stop offset="1" stop-color="#F7DD43" stop-opacity="0"/>
</linearGradient>
<linearGradient id="paint30_linear_22_533" x1="18.5" y1="455" x2="18.5" y2="766.381" gradientUnits="userSpaceOnUse">
<stop stop-color="#F7DD43"/>
<stop offset="1" stop-color="#F7DD43" stop-opacity="0"/>
</linearGradient>
<linearGradient id="paint31_linear_22_533" x1="18.5" y1="455" x2="18.5" y2="766.381" gradientUnits="userSpaceOnUse">
<stop stop-color="#F7DD43"/>
<stop offset="1" stop-color="#F7DD43" stop-opacity="0"/>
</linearGradient>
<linearGradient id="paint32_linear_22_533" x1="18.5" y1="455" x2="18.5" y2="766.381" gradientUnits="userSpaceOnUse">
<stop stop-color="#F7DD43"/>
<stop offset="1" stop-color="#F7DD43" stop-opacity="0"/>
</linearGradient>
<linearGradient id="paint33_linear_22_533" x1="18.5" y1="455" x2="18.5" y2="766.381" gradientUnits="userSpaceOnUse">
<stop stop-color="#F7DD43"/>
<stop offset="1" stop-color="#F7DD43" stop-opacity="0"/>
</linearGradient>
<linearGradient id="paint34_linear_22_533" x1="18.5" y1="455" x2="18.5" y2="766.381" gradientUnits="userSpaceOnUse">
<stop stop-color="#F7DD43"/>
<stop offset="1" stop-color="#F7DD43" stop-opacity="0"/>
</linearGradient>
<linearGradient id="paint35_linear_22_533" x1="18.5" y1="455" x2="18.5" y2="766.381" gradientUnits="userSpaceOnUse">
<stop stop-color="#F7DD43"/>
<stop offset="1" stop-color="#F7DD43" stop-opacity="0"/>
</linearGradient>
<linearGradient id="paint36_linear_22_533" x1="18.5" y1="455" x2="18.5" y2="766.381" gradientUnits="userSpaceOnUse">
<stop stop-color="#F7DD43"/>
<stop offset="1" stop-color="#F7DD43" stop-opacity="0"/>
</linearGradient>
<linearGradient id="paint37_linear_22_533" x1="18.5" y1="455" x2="18.5" y2="766.381" gradientUnits="userSpaceOnUse">
<stop stop-color="#F7DD43"/>
<stop offset="1" stop-color="#F7DD43" stop-opacity="0"/>
</linearGradient>
<linearGradient id="paint38_linear_22_533" x1="18.5" y1="455" x2="18.5" y2="766.381" gradientUnits="userSpaceOnUse">
<stop stop-color="#F7DD43"/>
<stop offset="1" stop-color="#F7DD43" stop-opacity="0"/>
</linearGradient>
<linearGradient id="paint39_linear_22_533" x1="18.5" y1="455" x2="18.5" y2="766.381" gradientUnits="userSpaceOnUse">
<stop stop-color="#F7DD43"/>
<stop offset="1" stop-color="#F7DD43" stop-opacity="0"/>
</linearGradient>
<linearGradient id="paint40_linear_22_533" x1="18.5" y1="455" x2="18.5" y2="766.381" gradientUnits="userSpaceOnUse">
<stop stop-color="#F7DD43"/>
<stop offset="1" stop-color="#F7DD43" stop-opacity="0"/>
</linearGradient>
<linearGradient id="paint41_linear_22_533" x1="18.5" y1="455" x2="18.5" y2="766.381" gradientUnits="userSpaceOnUse">
<stop stop-color="#F7DD43"/>
<stop offset="1" stop-color="#F7DD43" stop-opacity="0"/>
</linearGradient>
<linearGradient id="paint42_linear_22_533" x1="18.5" y1="455" x2="18.5" y2="766.381" gradientUnits="userSpaceOnUse">
<stop stop-color="#F7DD43"/>
<stop offset="1" stop-color="#F7DD43" stop-opacity="0"/>
</linearGradient>
<linearGradient id="paint43_linear_22_533" x1="18.5" y1="455" x2="18.5" y2="766.381" gradientUnits="userSpaceOnUse">
<stop stop-color="#F7DD43"/>
<stop offset="1" stop-color="#F7DD43" stop-opacity="0"/>
</linearGradient>
<linearGradient id="paint44_linear_22_533" x1="18.5" y1="455" x2="18.5" y2="766.381" gradientUnits="userSpaceOnUse">
<stop stop-color="#F7DD43"/>
<stop offset="1" stop-color="#F7DD43" stop-opacity="0"/>
</linearGradient>
<linearGradient id="paint45_linear_22_533" x1="18.5" y1="455" x2="18.5" y2="766.381" gradientUnits="userSpaceOnUse">
<stop stop-color="#F7DD43"/>
<stop offset="1" stop-color="#F7DD43" stop-opacity="0"/>
</linearGradient>
<linearGradient id="paint46_linear_22_533" x1="18.5" y1="455" x2="18.5" y2="766.381" gradientUnits="userSpaceOnUse">
<stop stop-color="#F7DD43"/>
<stop offset="1" stop-color="#F7DD43" stop-opacity="0"/>
</linearGradient>
<linearGradient id="paint47_linear_22_533" x1="347.5" y1="122" x2="347.5" y2="420.818" gradientUnits="userSpaceOnUse">
<stop stop-color="#F7DD43"/>
<stop offset="1" stop-color="#F7DD43" stop-opacity="0"/>
</linearGradient>
<linearGradient id="paint48_linear_22_533" x1="347.5" y1="122" x2="347.5" y2="420.818" gradientUnits="userSpaceOnUse">
<stop stop-color="#F7DD43"/>
<stop offset="1" stop-color="#F7DD43" stop-opacity="0"/>
</linearGradient>
<linearGradient id="paint49_linear_22_533" x1="347.5" y1="122" x2="347.5" y2="420.818" gradientUnits="userSpaceOnUse">
<stop stop-color="#F7DD43"/>
<stop offset="1" stop-color="#F7DD43" stop-opacity="0"/>
</linearGradient>
<linearGradient id="paint50_linear_22_533" x1="347.5" y1="122" x2="347.5" y2="420.818" gradientUnits="userSpaceOnUse">
<stop stop-color="#F7DD43"/>
<stop offset="1" stop-color="#F7DD43" stop-opacity="0"/>
</linearGradient>
<linearGradient id="paint51_linear_22_533" x1="347.5" y1="122" x2="347.5" y2="420.818" gradientUnits="userSpaceOnUse">
<stop stop-color="#F7DD43"/>
<stop offset="1" stop-color="#F7DD43" stop-opacity="0"/>
</linearGradient>
<linearGradient id="paint52_linear_22_533" x1="347.5" y1="122" x2="347.5" y2="420.818" gradientUnits="userSpaceOnUse">
<stop stop-color="#F7DD43"/>
<stop offset="1" stop-color="#F7DD43" stop-opacity="0"/>
</linearGradient>
<linearGradient id="paint53_linear_22_533" x1="347.5" y1="122" x2="347.5" y2="420.818" gradientUnits="userSpaceOnUse">
<stop stop-color="#F7DD43"/>
<stop offset="1" stop-color="#F7DD43" stop-opacity="0"/>
</linearGradient>
<linearGradient id="paint54_linear_22_533" x1="347.5" y1="122" x2="347.5" y2="420.818" gradientUnits="userSpaceOnUse">
<stop stop-color="#F7DD43"/>
<stop offset="1" stop-color="#F7DD43" stop-opacity="0"/>
</linearGradient>
<linearGradient id="paint55_linear_22_533" x1="347.5" y1="122" x2="347.5" y2="420.818" gradientUnits="userSpaceOnUse">
<stop stop-color="#F7DD43"/>
<stop offset="1" stop-color="#F7DD43" stop-opacity="0"/>
</linearGradient>
<linearGradient id="paint56_linear_22_533" x1="347.5" y1="122" x2="347.5" y2="420.818" gradientUnits="userSpaceOnUse">
<stop stop-color="#F7DD43"/>
<stop offset="1" stop-color="#F7DD43" stop-opacity="0"/>
</linearGradient>
<linearGradient id="paint57_linear_22_533" x1="347.5" y1="122" x2="347.5" y2="420.818" gradientUnits="userSpaceOnUse">
<stop stop-color="#F7DD43"/>
<stop offset="1" stop-color="#F7DD43" stop-opacity="0"/>
</linearGradient>
<linearGradient id="paint58_linear_22_533" x1="347.5" y1="122" x2="347.5" y2="420.818" gradientUnits="userSpaceOnUse">
<stop stop-color="#F7DD43"/>
<stop offset="1" stop-color="#F7DD43" stop-opacity="0"/>
</linearGradient>
<linearGradient id="paint59_linear_22_533" x1="347.5" y1="122" x2="347.5" y2="420.818" gradientUnits="userSpaceOnUse">
<stop stop-color="#F7DD43"/>
<stop offset="1" stop-color="#F7DD43" stop-opacity="0"/>
</linearGradient>
<linearGradient id="paint60_linear_22_533" x1="347.5" y1="122" x2="347.5" y2="420.818" gradientUnits="userSpaceOnUse">
<stop stop-color="#F7DD43"/>
<stop offset="1" stop-color="#F7DD43" stop-opacity="0"/>
</linearGradient>
<linearGradient id="paint61_linear_22_533" x1="347.5" y1="122" x2="347.5" y2="420.818" gradientUnits="userSpaceOnUse">
<stop stop-color="#F7DD43"/>
<stop offset="1" stop-color="#F7DD43" stop-opacity="0"/>
</linearGradient>
<linearGradient id="paint62_linear_22_533" x1="347.5" y1="122" x2="347.5" y2="420.818" gradientUnits="userSpaceOnUse">
<stop stop-color="#F7DD43"/>
<stop offset="1" stop-color="#F7DD43" stop-opacity="0"/>
</linearGradient>
<linearGradient id="paint63_linear_22_533" x1="347.5" y1="122" x2="347.5" y2="420.818" gradientUnits="userSpaceOnUse">
<stop stop-color="#F7DD43"/>
<stop offset="1" stop-color="#F7DD43" stop-opacity="0"/>
</linearGradient>
<linearGradient id="paint64_linear_22_533" x1="347.5" y1="122" x2="347.5" y2="420.818" gradientUnits="userSpaceOnUse">
<stop stop-color="#F7DD43"/>
<stop offset="1" stop-color="#F7DD43" stop-opacity="0"/>
</linearGradient>
<linearGradient id="paint65_linear_22_533" x1="347.5" y1="122" x2="347.5" y2="420.818" gradientUnits="userSpaceOnUse">
<stop stop-color="#F7DD43"/>
<stop offset="1" stop-color="#F7DD43" stop-opacity="0"/>
</linearGradient>
<linearGradient id="paint66_linear_22_533" x1="347.5" y1="122" x2="347.5" y2="420.818" gradientUnits="userSpaceOnUse">
<stop stop-color="#F7DD43"/>
<stop offset="1" stop-color="#F7DD43" stop-opacity="0"/>
</linearGradient>
<linearGradient id="paint67_linear_22_533" x1="347.5" y1="122" x2="347.5" y2="420.818" gradientUnits="userSpaceOnUse">
<stop stop-color="#F7DD43"/>
<stop offset="1" stop-color="#F7DD43" stop-opacity="0"/>
</linearGradient>
<linearGradient id="paint68_linear_22_533" x1="347.5" y1="122" x2="347.5" y2="420.818" gradientUnits="userSpaceOnUse">
<stop stop-color="#F7DD43"/>
<stop offset="1" stop-color="#F7DD43" stop-opacity="0"/>
</linearGradient>
<linearGradient id="paint69_linear_22_533" x1="347.5" y1="122" x2="347.5" y2="420.818" gradientUnits="userSpaceOnUse">
<stop stop-color="#F7DD43"/>
<stop offset="1" stop-color="#F7DD43" stop-opacity="0"/>
</linearGradient>
<linearGradient id="paint70_linear_22_533" x1="347.5" y1="122" x2="347.5" y2="420.818" gradientUnits="userSpaceOnUse">
<stop stop-color="#F7DD43"/>
<stop offset="1" stop-color="#F7DD43" stop-opacity="0"/>
</linearGradient>
<linearGradient id="paint71_linear_22_533" x1="347.5" y1="122" x2="347.5" y2="420.818" gradientUnits="userSpaceOnUse">
<stop stop-color="#F7DD43"/>
<stop offset="1" stop-color="#F7DD43" stop-opacity="0"/>
</linearGradient>
<linearGradient id="paint72_linear_22_533" x1="347.5" y1="122" x2="347.5" y2="420.818" gradientUnits="userSpaceOnUse">
<stop stop-color="#F7DD43"/>
<stop offset="1" stop-color="#F7DD43" stop-opacity="0"/>
</linearGradient>
<linearGradient id="paint73_linear_22_533" x1="347.5" y1="122" x2="347.5" y2="420.818" gradientUnits="userSpaceOnUse">
<stop stop-color="#F7DD43"/>
<stop offset="1" stop-color="#F7DD43" stop-opacity="0"/>
</linearGradient>
<linearGradient id="paint74_linear_22_533" x1="347.5" y1="122" x2="347.5" y2="420.818" gradientUnits="userSpaceOnUse">
<stop stop-color="#F7DD43"/>
<stop offset="1" stop-color="#F7DD43" stop-opacity="0"/>
</linearGradient>
<linearGradient id="paint75_linear_22_533" x1="347.5" y1="122" x2="347.5" y2="420.818" gradientUnits="userSpaceOnUse">
<stop stop-color="#F7DD43"/>
<stop offset="1" stop-color="#F7DD43" stop-opacity="0"/>
</linearGradient>
<linearGradient id="paint76_linear_22_533" x1="347.5" y1="122" x2="347.5" y2="420.818" gradientUnits="userSpaceOnUse">
<stop stop-color="#F7DD43"/>
<stop offset="1" stop-color="#F7DD43" stop-opacity="0"/>
</linearGradient>
<linearGradient id="paint77_linear_22_533" x1="347.5" y1="122" x2="347.5" y2="420.818" gradientUnits="userSpaceOnUse">
<stop stop-color="#F7DD43"/>
<stop offset="1" stop-color="#F7DD43" stop-opacity="0"/>
</linearGradient>
<linearGradient id="paint78_linear_22_533" x1="347.5" y1="122" x2="347.5" y2="420.818" gradientUnits="userSpaceOnUse">
<stop stop-color="#F7DD43"/>
<stop offset="1" stop-color="#F7DD43" stop-opacity="0"/>
</linearGradient>
<linearGradient id="paint79_linear_22_533" x1="347.5" y1="122" x2="347.5" y2="420.818" gradientUnits="userSpaceOnUse">
<stop stop-color="#F7DD43"/>
<stop offset="1" stop-color="#F7DD43" stop-opacity="0"/>
</linearGradient>
<linearGradient id="paint80_linear_22_533" x1="347.5" y1="122" x2="347.5" y2="420.818" gradientUnits="userSpaceOnUse">
<stop stop-color="#F7DD43"/>
<stop offset="1" stop-color="#F7DD43" stop-opacity="0"/>
</linearGradient>
<linearGradient id="paint81_linear_22_533" x1="347.5" y1="122" x2="347.5" y2="420.818" gradientUnits="userSpaceOnUse">
<stop stop-color="#F7DD43"/>
<stop offset="1" stop-color="#F7DD43" stop-opacity="0"/>
</linearGradient>
<linearGradient id="paint82_linear_22_533" x1="347.5" y1="122" x2="347.5" y2="420.818" gradientUnits="userSpaceOnUse">
<stop stop-color="#F7DD43"/>
<stop offset="1" stop-color="#F7DD43" stop-opacity="0"/>
</linearGradient>
<linearGradient id="paint83_linear_22_533" x1="347.5" y1="122" x2="347.5" y2="420.818" gradientUnits="userSpaceOnUse">
<stop stop-color="#F7DD43"/>
<stop offset="1" stop-color="#F7DD43" stop-opacity="0"/>
</linearGradient>
<linearGradient id="paint84_linear_22_533" x1="347.5" y1="122" x2="347.5" y2="420.818" gradientUnits="userSpaceOnUse">
<stop stop-color="#F7DD43"/>
<stop offset="1" stop-color="#F7DD43" stop-opacity="0"/>
</linearGradient>
<linearGradient id="paint85_linear_22_533" x1="347.5" y1="122" x2="347.5" y2="420.818" gradientUnits="userSpaceOnUse">
<stop stop-color="#F7DD43"/>
<stop offset="1" stop-color="#F7DD43" stop-opacity="0"/>
</linearGradient>
<linearGradient id="paint86_linear_22_533" x1="347.5" y1="122" x2="347.5" y2="420.818" gradientUnits="userSpaceOnUse">
<stop stop-color="#F7DD43"/>
<stop offset="1" stop-color="#F7DD43" stop-opacity="0"/>
</linearGradient>
<linearGradient id="paint87_linear_22_533" x1="347.5" y1="122" x2="347.5" y2="420.818" gradientUnits="userSpaceOnUse">
<stop stop-color="#F7DD43"/>
<stop offset="1" stop-color="#F7DD43" stop-opacity="0"/>
</linearGradient>
<linearGradient id="paint88_linear_22_533" x1="347.5" y1="122" x2="347.5" y2="420.818" gradientUnits="userSpaceOnUse">
<stop stop-color="#F7DD43"/>
<stop offset="1" stop-color="#F7DD43" stop-opacity="0"/>
</linearGradient>
<linearGradient id="paint89_linear_22_533" x1="347.5" y1="122" x2="347.5" y2="420.818" gradientUnits="userSpaceOnUse">
<stop stop-color="#F7DD43"/>
<stop offset="1" stop-color="#F7DD43" stop-opacity="0"/>
</linearGradient>
<linearGradient id="paint90_linear_22_533" x1="347.5" y1="122" x2="347.5" y2="420.818" gradientUnits="userSpaceOnUse">
<stop stop-color="#F7DD43"/>
<stop offset="1" stop-color="#F7DD43" stop-opacity="0"/>
</linearGradient>
<linearGradient id="paint91_linear_22_533" x1="347.5" y1="122" x2="347.5" y2="420.818" gradientUnits="userSpaceOnUse">
<stop stop-color="#F7DD43"/>
<stop offset="1" stop-color="#F7DD43" stop-opacity="0"/>
</linearGradient>
<linearGradient id="paint92_linear_22_533" x1="347.5" y1="122" x2="347.5" y2="420.818" gradientUnits="userSpaceOnUse">
<stop stop-color="#F7DD43"/>
<stop offset="1" stop-color="#F7DD43" stop-opacity="0"/>
</linearGradient>
<linearGradient id="paint93_linear_22_533" x1="347.5" y1="122" x2="347.5" y2="420.818" gradientUnits="userSpaceOnUse">
<stop stop-color="#F7DD43"/>
<stop offset="1" stop-color="#F7DD43" stop-opacity="0"/>
</linearGradient>
<clipPath id="clip0_22_533">
<rect width="375" height="812" rx="30" fill="white"/>
</clipPath>
</defs>
</svg>
